<?xml version="1.0" encoding="UTF-8"?>
<svg version="1.1" xmlns="http://www.w3.org/2000/svg" width="2063" height="1156">
<path d="M0 0 C680.79 0 1361.58 0 2063 0 C2063 381.48 2063 762.96 2063 1156 C1382.21 1156 701.42 1156 0 1156 C0 774.52 0 393.04 0 0 Z " fill="#F9E184" transform="translate(0,0)"/>
<path d="M0 0 C102.3 0 204.6 0 310 0 C310 141.24 310 282.48 310 428 C275.68 428 241.36 428 206 428 C206 395 206 362 206 328 C172.34 328 138.68 328 104 328 C104 490.36 104 652.72 104 820 C69.68 820 35.36 820 0 820 C0 787 0 754 0 720 C-33.99 720 -67.98 720 -103 720 C-103 753 -103 786 -103 820 C-136.99 820 -170.98 820 -206 820 C-206 787 -206 754 -206 720 C-239.66 720 -273.32 720 -308 720 C-308 784.68 -308 849.36 -308 916 C-240.02 916 -172.04 916 -102 916 C-102 948.34 -102 980.68 -102 1014 C-238.62 1014 -375.24 1014 -516 1014 C-516 1045.02 -516 1076.04 -516 1108 C-486.41289159 1107.67729586 -486.41289159 1107.67729586 -456.82592773 1107.34179688 C-374.50051709 1106.4560848 -292.15909086 1107.00424876 -209.83248705 1107.44538164 C-198.12320189 1107.50801691 -186.41390096 1107.56745165 -174.70459855 1107.62675762 C-150.80304773 1107.74788022 -126.90152034 1107.87299541 -103 1108 C-103 1123.84 -103 1139.68 -103 1156 C-341.26 1156 -579.52 1156 -825 1156 C-825 1140.16 -825 1124.32 -825 1108 C-756.69 1108 -688.38 1108 -618 1108 C-618 1044.64 -618 981.28 -618 916 C-550.02 916 -482.04 916 -412 916 C-412 884.65 -412 853.3 -412 821 C-434.584375 821.2475 -434.584375 821.2475 -457.625 821.5 C-511.08727927 822.04858202 -564.53373564 822.07509307 -618 822 C-618 788.34 -618 754.68 -618 720 C-516.36 720 -414.72 720 -310 720 C-310 688.98 -310 657.96 -310 626 C-309.34 626 -308.68 626 -308 626 C-308 592.34 -308 558.68 -308 524 C-206.36 524 -104.72 524 0 524 C0 492.65 0 461.3 0 429 C-67.98 429 -135.96 429 -206 429 C-206 332.31 -206 235.62 -206 136 C-138.02 136 -70.04 136 0 136 C0 91.12 0 46.24 0 0 Z " fill="#F9E48E" transform="translate(1392,0)"/>
<path d="M0 0 C425.7 0 851.4 0 1290 0 C1290 13.86 1290 27.72 1290 42 C1221.36 42 1152.72 42 1082 42 C1082 136.38 1082 230.76 1082 328 C1082.66 328 1083.32 328 1084 328 C1084 361.66 1084 395.32 1084 430 C1083.34 430 1082.68 430 1082 430 C1082 494.35 1082 558.7 1082 625 C1048.34 625 1014.68 625 980 625 C979.74922556 579.91881717 979.74922556 579.91881717 979.64453125 560.25976562 C979.57367694 546.95970765 979.50238486 533.65965369 979.42724609 520.35961914 C978.89864013 426.55841383 978.94209582 332.76392361 979.44538164 193.34592706 C979.48867488 181.77871672 979.53101627 170.21150316 979.57275391 158.64428711 C979.5757409 157.81654145 979.5787279 156.98879578 979.58180541 156.13596692 C979.596802 151.97885666 979.61178353 147.82174635 979.62675762 143.66463602 C979.74884352 109.77641516 979.87380569 75.88820586 980 42 C945.68 42 911.36 42 876 42 C876 105.69 876 169.38 876 235 C842.34 235 808.68 235 774 235 C774 171.31 774 107.62 774 42 C706.02 42 638.04 42 568 42 C568 73.02 568 104.04 568 136 C601.66 136 635.32 136 670 136 C670 199.69 670 263.38 670 329 C692.584375 328.7525 692.584375 328.7525 715.625 328.5 C769.08727927 327.95141798 822.53373564 327.92490693 876 328 C876 361.66 876 395.32 876 430 C808.02 430 740.04 430 670 430 C670 461.02 670 492.04 670 524 C737.98 524 805.96 524 876 524 C876 557.66 876 591.32 876 626 C808.02 626 740.04 626 670 626 C670 754.04 670 882.08 670 1014 C636.01 1014 602.02 1014 567 1014 C567.01160156 1000.23539063 567.02320313 986.47078125 567.03515625 972.2890625 C567.04026289 963.59374981 567.04511792 954.89843821 567.04882812 946.203125 C567.05477051 932.38704051 567.06177051 918.57096211 567.07543945 904.75488281 C567.08538806 894.69441231 567.09185385 884.63394672 567.09408849 874.57347143 C567.0953953 869.24360189 567.09847926 863.91374642 567.10573006 858.58388138 C567.11249305 853.57221268 567.11461638 848.5605639 567.11310768 843.54889107 C567.11338388 841.70496449 567.11538735 839.86103728 567.11920547 838.01711464 C567.12414706 835.50858744 567.12299654 833.00013646 567.12025452 830.49160767 C567.12316736 829.75426222 567.1260802 829.01691678 567.12908131 828.25722754 C567.17655154 824.50344668 567.17655154 824.50344668 566 821 C565.90122884 818.32247324 565.86374016 815.67099309 565.87060547 812.99316406 C565.86885315 812.1587529 565.86710083 811.32434174 565.86529541 810.46464539 C565.86083628 807.64828497 565.86385258 804.83198631 565.8671875 802.015625 C565.86650999 799.97922759 565.86553631 797.94283025 565.86428833 795.90643311 C565.86280175 791.55789447 565.86497625 787.20937613 565.86962891 782.86083984 C565.87397202 778.61831236 565.87442359 774.37582772 565.86962891 770.13330078 C565.81935417 722.08225363 566.48880247 674.05256806 567 626 C498.69 626 430.38 626 360 626 C360 528.32 360 430.64 360 330 C394.32 330 428.64 330 464 330 C464 394.35 464 458.7 464 525 C480.17 524.67 496.34 524.34 513 524 C523.0231354 523.9410265 533.04027651 523.89813891 543.0625 523.9375 C545.44075419 523.94255907 547.81900951 523.94711369 550.19726562 523.95117188 C555.79820526 523.96087215 561.39909146 523.97951387 567 524 C567.02312166 511.76119671 567.04091418 499.52239857 567.05181217 487.28357792 C567.05704139 481.60123488 567.06413973 475.91890673 567.07543945 470.23657227 C567.08626696 464.75770864 567.09227654 459.27885938 567.09487724 453.79998589 C567.09673174 451.70470389 567.10035282 449.60942272 567.10573006 447.5141468 C567.11293868 444.59022416 567.11399102 441.66636167 567.11352539 438.74243164 C567.11712067 437.8670575 567.12071594 436.99168335 567.12442017 436.08978271 C567.4989863 432.23477291 567.4989863 432.23477291 566 429 C565.89911747 426.38558829 565.86386559 423.79758852 565.87060547 421.18261719 C565.86885315 420.35649933 565.86710083 419.53038147 565.86529541 418.67922974 C565.8608289 415.88509113 565.86385523 413.09101454 565.8671875 410.296875 C565.86651014 408.27907296 565.86553658 406.261271 565.86428833 404.24346924 C565.86280077 399.93183647 565.86497913 395.62022415 565.86962891 391.30859375 C565.87397041 387.10089687 565.87442576 382.8932432 565.86962891 378.68554688 C565.81941851 331.11698529 566.48849332 283.57012078 567 236 C498.69 236 430.38 236 360 236 C360 171.98 360 107.96 360 42 C326.34 42 292.68 42 258 42 C258 106.02 258 170.04 258 236 C223.68 236 189.36 236 154 236 C154 172.31 154 108.62 154 43 C138.2425 43.165 122.485 43.33 106.25 43.5 C70.82943402 43.85900361 35.42251131 44.11281055 0 44 C0 29.48 0 14.96 0 0 Z " fill="#FAE48E" transform="translate(0,0)"/>
<path d="M0 0 C33.66 0 67.32 0 102 0 C102 44.88 102 89.76 102 136 C34.02 136 -33.96 136 -104 136 C-104 232.69 -104 329.38 -104 429 C-70.01 429 -36.02 429 -1 429 C-1 395.67 -1 362.34 -1 328 C-0.67 328 -0.34 328 0 328 C0 361.33 0 394.66 0 429 C32.82013228 428.63139742 32.82013228 428.63139742 65.64013672 428.25170898 C71.97875977 428.18371582 71.97875977 428.18371582 74.94338989 428.1532135 C77.01998969 428.1308782 79.09656829 428.10651886 81.17312622 428.08058167 C84.31314061 428.04175036 87.4531617 428.0092831 90.59326172 427.97827148 C91.52290174 427.96530501 92.45254177 427.95233854 93.41035271 427.93897915 C94.25276072 427.93196012 95.09516872 427.92494108 95.96310425 427.91770935 C96.69869505 427.90941321 97.43428585 427.90111708 98.19216728 427.89256954 C100 428 100 428 102 429 C102 460.35 102 491.7 102 524 C0.36 524 -101.28 524 -206 524 C-206 557.66 -206 591.32 -206 626 C-206.66 626 -207.32 626 -208 626 C-208 657.02 -208 688.04 -208 720 C-309.64 720 -411.28 720 -516 720 C-516 753.66 -516 787.32 -516 822 C-501.315 821.835 -486.63 821.67 -471.5 821.5 C-417.66289229 820.93523801 -363.841278 820.92624482 -310 821 C-310 852.35 -310 883.7 -310 916 C-412.3 916 -514.6 916 -620 916 C-620 820.3 -620 724.6 -620 626 C-552.02 626 -484.04 626 -414 626 C-414 592.34 -414 558.68 -414 524 C-481.98 524 -549.96 524 -620 524 C-620 492.98 -620 461.96 -620 430 C-552.02 430 -484.04 430 -414 430 C-414 396.34 -414 362.68 -414 328 C-436.0275 328.2475 -436.0275 328.2475 -458.5 328.5 C-512.33710771 329.06476199 -566.158722 329.07375518 -620 329 C-620 265.31 -620 201.62 -620 136 C-653.66 136 -687.32 136 -722 136 C-722 104.98 -722 73.96 -722 42 C-654.02 42 -586.04 42 -516 42 C-516 105.69 -516 169.38 -516 235 C-482.34 235 -448.68 235 -414 235 C-414 171.31 -414 107.62 -414 42 C-379.68 42 -345.36 42 -310 42 C-310 234.39 -310 426.78 -310 625 C-276.34 625 -242.68 625 -208 625 C-208 560.65 -208 496.3 -208 430 C-207.34 430 -206.68 430 -206 430 C-206 396.34 -206 362.68 -206 328 C-206.66 328 -207.32 328 -208 328 C-208 233.62 -208 139.24 -208 42 C-139.36 42 -70.72 42 0 42 C0 28.14 0 14.28 0 0 Z " fill="#F9DF7D" transform="translate(1290,0)"/>
<path d="M0 0 C85.47 0 170.94 0 259 0 C259 381.48 259 762.96 259 1156 C241.84 1156 224.68 1156 207 1156 C206.8909115 1122.61891961 207.13075384 1089.25352264 207.5 1055.875 C207.51793673 1054.25314915 207.51793673 1054.25314915 207.53623581 1052.59853363 C207.6863198 1039.06563661 207.84104769 1025.53279565 208 1012 C207.34 1012 206.68 1012 206 1012 C205.97677778 976.29060185 205.95932592 940.5812053 205.94893467 904.8718011 C205.94768494 900.59300085 205.94639052 896.31420062 205.94506836 892.03540039 C205.94467489 890.75840443 205.94467489 890.75840443 205.94427348 889.45561058 C205.94052381 877.5847428 205.93438595 865.71387844 205.92626567 853.84301288 C205.91225169 833.35237367 205.90305838 812.86173805 205.90234375 792.37109375 C205.90230518 791.57146397 205.90226661 790.77183418 205.90222687 789.94797319 C205.90113317 756.05590519 205.92052097 722.16484965 206.22705078 688.27392578 C206.23680868 687.19496214 206.24656658 686.11599849 206.25662017 685.00433898 C206.44610108 664.66880601 206.73433703 644.33472211 207 624 C173.01 624 139.02 624 104 624 C104 688.68 104 753.36 104 820 C1.7 820 -100.6 820 -206 820 C-206 722.32 -206 624.64 -206 524 C-69.71 524 66.58 524 207 524 C207 492.32 207 460.64 207 428 C138.69 428 70.38 428 0 428 C0 395 0 362 0 328 C68.31 327.67 136.62 327.34 207 327 C207.33 296.31 207.66 265.62 208 234 C207.34 234 206.68 234 206 234 C206 169.98 206 105.96 206 40 C138.02 40 70.04 40 0 40 C0 26.8 0 13.6 0 0 Z " fill="#FAE48E" transform="translate(1804,0)"/>
<path d="M0 0 C85.14 0 170.28 0 258 0 C258 64.35 258 128.7 258 195 C286.88386577 194.67752236 286.88386577 194.67752236 315.76757812 194.34179688 C365.18400516 193.82490581 414.57015054 194 464 194 C464 273.2 464 352.4 464 434 C310.88 434 157.76 434 0 434 C0 290.78 0 147.56 0 0 Z " fill="#FAE48D" transform="translate(0,722)"/>
<path d="M0 0 C102.3 0 204.6 0 310 0 C310 64.68 310 129.36 310 196 C377.98 196 445.96 196 516 196 C516 228.34 516 260.68 516 294 C379.38 294 242.76 294 102 294 C102 325.02 102 356.04 102 388 C131.58710841 387.67729586 131.58710841 387.67729586 161.17407227 387.34179688 C243.49948291 386.4560848 325.84090914 387.00424876 408.16751295 387.44538164 C419.87679811 387.50801691 431.58609904 387.56745165 443.29540145 387.62675762 C467.19695227 387.74788022 491.09847966 387.87299541 515 388 C515 403.84 515 419.68 515 436 C276.74 436 38.48 436 -207 436 C-207 420.16 -207 404.32 -207 388 C-138.69 388 -70.38 388 0 388 C0 324.64 0 261.28 0 196 C67.98 196 135.96 196 206 196 C206 164.65 206 133.3 206 101 C183.415625 101.2475 183.415625 101.2475 160.375 101.5 C106.91272073 102.04858202 53.46626436 102.07509307 0 102 C0 68.34 0 34.68 0 0 Z " fill="#FAE48E" transform="translate(774,720)"/>
<path d="M0 0 C34.32 0 68.64 0 104 0 C104 77.22 104 154.44 104 234 C69.68 234 35.36 234 0 234 C0 265.02 0 296.04 0 328 C33.99 328 67.98 328 103 328 C103 361 103 394 103 428 C50.24757661 428.65429362 -2.48374738 429.04367739 -55.23828125 429.06640625 C-56.80787303 429.06712604 -56.80787303 429.06712604 -58.40917373 429.06786036 C-107.60609986 429.08909159 -156.80312277 429.03240901 -206 429 C-206 332.31 -206 235.62 -206 136 C-138.02 136 -70.04 136 0 136 C0 91.12 0 46.24 0 0 Z " fill="#F9E48E" transform="translate(1392,0)"/>
<path d="M0 0 C17.16 0 34.32 0 52 0 C52 64.02 52 128.04 52 194 C119.98 194 187.96 194 258 194 C258 291.68 258 389.36 258 490 C172.86 490 87.72 490 0 490 C0 328.3 0 166.6 0 0 Z " fill="#FAE48D" transform="translate(0,136)"/>
<path d="M0 0 C67.98 0 135.96 0 206 0 C206 33 206 66 206 100 C240.32 100 274.64 100 310 100 C310 164.68 310 229.36 310 296 C207.7 296 105.4 296 0 296 C0 198.32 0 100.64 0 0 Z " fill="#FAE48D" transform="translate(1598,524)"/>
<path d="M0 0 C50.82 0 101.64 0 154 0 C154 64.02 154 128.04 154 194 C188.32 194 222.64 194 258 194 C258 193.34 258 192.68 258 192 C291.66 192.33 325.32 192.66 360 193 C360 239.53 360 286.06 360 334 C241.2 334 122.4 334 0 334 C0 223.78 0 113.56 0 0 Z " fill="#F8D968" transform="translate(0,822)"/>
<path d="M0 0 C102.3 0 204.6 0 310 0 C310 79.2 310 158.4 310 240 C207.7 240 105.4 240 0 240 C0 160.8 0 81.6 0 0 Z " fill="#F9E38D" transform="translate(1392,916)"/>
<path d="M0 0 C67.98 0 135.96 0 206 0 C207.46490644 2.92981287 207.13874277 5.87429477 207.12939453 9.08544922 C207.13112419 9.82444584 207.13285385 10.56344246 207.13463593 11.32483292 C207.13903419 13.8181397 207.13602123 16.31137966 207.1328125 18.8046875 C207.13383007 20.59251933 207.13517064 22.380351 207.1368103 24.16818237 C207.13954246 29.04981145 207.1349836 33.93140934 207.12857056 38.81303406 C207.12501035 41.86612035 207.12338229 44.91920193 207.12231445 47.97229004 C207.10127335 96.6510301 206.58158779 145.32521639 206 194 C206.66 194 207.32 194 208 194 C208.02312178 206.10841944 208.04091424 218.21683367 208.05181217 230.32527065 C208.05704136 235.94707962 208.06413966 241.56887353 208.07543945 247.19067383 C208.08626706 252.61118277 208.09227656 258.0316772 208.09487724 263.45219612 C208.09673172 265.52514945 208.10035277 267.59810194 208.10573006 269.67104912 C208.1129388 272.56383893 208.11399101 275.45656796 208.11352539 278.34936523 C208.11712067 279.21538864 208.12071594 280.08141205 208.12442017 280.97367859 C208.11405216 286.88594784 208.11405216 286.88594784 207 288 C204.33192632 288.09782955 201.68973429 288.12994243 199.02122498 288.12025452 C198.1771257 288.12111053 197.33302643 288.12196655 196.46334839 288.12284851 C193.60371847 288.12451403 190.74414612 288.11896342 187.88452148 288.11352539 C185.81185184 288.11321931 183.73918209 288.11335212 181.66651249 288.11389065 C176.09530588 288.11411723 170.52412057 288.10830415 164.95291901 288.10128021 C159.73297556 288.09560258 154.51303741 288.09531804 149.29309082 288.09460449 C134.00789104 288.08934858 118.72269525 288.07538754 103.4375 288.0625 C69.303125 288.041875 35.16875 288.02125 0 288 C0 192.96 0 97.92 0 0 Z " fill="#F9E38D" transform="translate(1804,40)"/>
<path d="M0 0 C0 64.35 0 128.7 0 195 C-68.68277563 195.75268795 -137.31335249 196.09647001 -206 196 C-206 131.65 -206 67.3 -206 1 C-137.31685813 0.2282793 -68.68760374 -0.09409261 0 0 Z " fill="#FAE48D" transform="translate(464,721)"/>
<path d="M0 0 C68.31 0 136.62 0 207 0 C207 64.02 207 128.04 207 194 C138.69 194 70.38 194 0 194 C0 129.98 0 65.96 0 0 Z " fill="#F9E48E" transform="translate(360,42)"/>
<path d="M0 0 C102.3 0 204.6 0 310 0 C310 33.66 310 67.32 310 102 C207.7 102 105.4 102 0 102 C0 68.34 0 34.68 0 0 Z " fill="#FAE48E" transform="translate(774,720)"/>
<path d="M0 0 C33.66 0 67.32 0 102 0 C102 31.02 102 62.04 102 94 C169.98 94 237.96 94 308 94 C308 127.66 308 161.32 308 196 C240.02 196 172.04 196 102 196 C102 162.67 102 129.34 102 95 C68.01 95 34.02 95 -1 95 C-0.67 63.65 -0.34 32.3 0 0 Z " fill="#FAE48D" transform="translate(568,430)"/>
<path d="M0 0 C33.99 0 67.98 0 103 0 C103.33 31.02 103.66 62.04 104 94 C171.98 94 239.96 94 310 94 C310 126.34 310 158.68 310 192 C241.36 192 172.72 192 102 192 C102 159.66 102 127.32 102 94 C68.34 94 34.68 94 0 94 C0 62.98 0 31.96 0 0 Z " fill="#FAE48E" transform="translate(980,822)"/>
<path d="M0 0 C33.99 0 67.98 0 103 0 C103 95.7 103 191.4 103 290 C69.01 290 35.02 290 0 290 C0 194.3 0 98.6 0 0 Z " fill="#F9E48D" transform="translate(1908,624)"/>
<path d="M0 0 C102.3 0 204.6 0 310 0 C310 31.02 310 62.04 310 94 C207.7 94 105.4 94 0 94 C0 62.98 0 31.96 0 0 Z " fill="#F9D968" transform="translate(876,1014)"/>
<path d="M0 0 C17.16 0 34.32 0 52 0 C52 161.7 52 323.4 52 490 C34.84 490 17.68 490 0 490 C0 328.3 0 166.6 0 0 Z " fill="#F8E38F" transform="translate(0,136)"/>
<path d="M0 0 C34.32 0 68.64 0 104 0 C104 79.53 104 159.06 104 241 C69.68 241 35.36 241 0 241 C0 161.47 0 81.94 0 0 Z " fill="#F9E48E" transform="translate(1804,915)"/>
<path d="M0 0 C34.32 0 68.64 0 104 0 C104 79.2 104 158.4 104 240 C69.68 240 35.36 240 0 240 C0 160.8 0 81.6 0 0 Z " fill="#F9E48E" transform="translate(360,916)"/>
<path d="M0 0 C34.32 0 68.64 0 104 0 C104 77.22 104 154.44 104 234 C69.68 234 35.36 234 0 234 C0 156.78 0 79.56 0 0 Z " fill="#F9E48D" transform="translate(1598,0)"/>
<path d="M0 0 C34.32 0 68.64 0 104 0 C104 77.22 104 154.44 104 234 C69.68 234 35.36 234 0 234 C0 156.78 0 79.56 0 0 Z " fill="#F9E48E" transform="translate(1392,0)"/>
<path d="M0 0 C102.3 0 204.6 0 310 0 C310 13.86 310 27.72 310 42 C276.34 42 242.68 42 208 42 C208 73.02 208 104.04 208 136 C241.66 136 275.32 136 310 136 C310 169 310 202 310 236 C284.58438448 236.04010881 284.58438448 236.04010881 273.79101562 236.04882812 C266.41218349 236.05481717 259.0333637 236.0619191 251.65454102 236.07543945 C245.70883994 236.08626629 239.76315211 236.0922764 233.81744194 236.09487724 C231.54353057 236.09673186 229.26961996 236.10035317 226.99571419 236.10573006 C223.8227288 236.11293778 220.64979883 236.11399106 217.47680664 236.11352539 C216.52662659 236.11712067 215.57644653 236.12071594 214.59747314 236.12442017 C208.11405216 236.11405216 208.11405216 236.11405216 207 235 C206.90227712 232.50847885 206.87003968 230.04468924 206.87974548 227.55271912 C206.87846146 226.37211662 206.87846146 226.37211662 206.87715149 225.16766357 C206.87548617 222.50164582 206.88103626 219.83568982 206.88647461 217.16967773 C206.8867807 215.23718041 206.88664787 213.30468298 206.88610935 211.37218571 C206.88588278 206.17805874 206.8916956 200.98395462 206.89871979 195.78983307 C206.90439769 190.92307968 206.90468198 186.05633196 206.90539551 181.1895752 C206.91065129 166.93888041 206.92461232 152.68818992 206.9375 138.4375 C206.958125 106.613125 206.97875 74.78875 207 42 C138.69 42 70.38 42 0 42 C0 28.14 0 14.28 0 0 Z " fill="#FAE48E" transform="translate(360,0)"/>
<path d="M0 0 C17.16 0 34.32 0 52 0 C52.02785694 14.39585007 52.05121774 28.79163627 52.0625 43.1875 C52.06335602 44.27186089 52.06421204 45.35622177 52.06509399 46.47344208 C52.09860301 94.65683361 51.59666767 142.8190859 51 191 C84.99 191.33 118.98 191.66 154 192 C154 191.34 154 190.68 154 190 C188.32 190 222.64 190 258 190 C258 205.84 258 221.68 258 238 C172.86 238 87.72 238 0 238 C0 159.46 0 80.92 0 0 Z " fill="#F9E48E" transform="translate(0,918)"/>
<path d="M0 0 C67.65 0 135.3 0 205 0 C205 33 205 66 205 100 C136.65102041 100.73002915 68.35218919 101.09963876 0 101 C0 67.67 0 34.34 0 0 Z " fill="#FAE48D" transform="translate(1290,328)"/>
<path d="M0 0 C85.47 0 170.94 0 259 0 C259 77.22 259 154.44 259 234 C241.51 234 224.02 234 206 234 C206 169.98 206 105.96 206 40 C138.02 40 70.04 40 0 40 C0 26.8 0 13.6 0 0 Z " fill="#FAE48F" transform="translate(1804,0)"/>
<path d="M0 0 C34.32 0 68.64 0 104 0 C104 33.33 104 66.66 104 101 C137.66 101 171.32 101 206 101 C206 67.67 206 34.34 206 0 C206.66 0 207.32 0 208 0 C208 33.66 208 67.32 208 102 C207.34 102 206.68 102 206 102 C206 133.02 206 164.04 206 196 C172.34 196 138.68 196 104 196 C104 164.98 104 133.96 104 102 C69.68 102 35.36 102 0 102 C0 68.34 0 34.68 0 0 Z " fill="#F9E48E" transform="translate(876,524)"/>
<path d="M0 0 C50.82 0 101.64 0 154 0 C154 33 154 66 154 100 C103.18 100 52.36 100 0 100 C0 67 0 34 0 0 Z " fill="#F9E48E" transform="translate(0,722)"/>
<path d="M0 0 C1.09290092 0.00171204 2.18580185 0.00342407 3.31182098 0.00518799 C15.62468919 0.0260681 27.937188 0.07094375 40.25 0.125 C40.25 16.625 40.25 33.125 40.25 50.125 C-62.05 50.125 -164.35 50.125 -269.75 50.125 C-269.75 34.285 -269.75 18.445 -269.75 2.125 C-237.95842491 1.78255773 -206.16677223 1.44862608 -174.375 1.125 C-172.62380136 1.10715438 -172.62380136 1.10715438 -170.83722496 1.08894825 C-55.29420056 -0.08730089 -55.29420056 -0.08730089 0 0 Z " fill="#FAE48F" transform="translate(1661.75,1105.875)"/>
<path d="M0 0 C67.39085011 -0.06340265 134.77758468 0.08426969 202.16745722 0.44538212 C213.87676097 0.50801482 225.58608046 0.56745155 237.29540145 0.62675762 C261.19695227 0.74788022 285.09847966 0.87299541 309 1 C309 16.84 309 32.68 309 49 C207.03 49 105.06 49 0 49 C0 32.83 0 16.66 0 0 Z " fill="#FAE48F" transform="translate(980,1107)"/>
<path d="M0 0 C34.32 0 68.64 0 104 0 C104.020625 14.47875 104.04125 28.9575 104.0625 43.875 C104.071604 48.32726074 104.08070801 52.77952148 104.09008789 57.36669922 C104.09460449 63.10766602 104.09460449 63.10766602 104.09544373 65.85403442 C104.09690976 67.64350641 104.10026348 69.43297792 104.10557556 71.22244263 C104.17355288 95.4915752 103.48541343 119.72932829 103 144 C69.01 144 35.02 144 0 144 C0 96.48 0 48.96 0 0 Z " fill="#F9D968" transform="translate(1908,1012)"/>
<path d="M0 0 C1.7627766 0.00128403 1.7627766 0.00128403 3.56116486 0.00259399 C18.29079845 0.01410886 33.02037664 0.03722033 47.75 0.0625 C47.75 30.7525 47.75 61.4425 47.75 93.0625 C-3.07 93.0625 -53.89 93.0625 -106.25 93.0625 C-106.25 62.7025 -106.25 32.3425 -106.25 1.0625 C-70.82368711 0.15991878 -35.43601944 -0.02599378 0 0 Z " fill="#F8D968" transform="translate(106.25,42.9375)"/>
<path d="M0 0 C33.66 0 67.32 0 102 0 C102 44.88 102 89.76 102 136 C68.34 136 34.68 136 0 136 C0 91.12 0 46.24 0 0 Z " fill="#F9D968" transform="translate(1496,0)"/>
<path d="M0 0 C84.81 0 169.62 0 257 0 C257 13.86 257 27.72 257 42 C231.16942392 42.263563 205.33882798 42.524869 179.50819016 42.78230286 C167.50821236 42.90196558 155.50824534 43.02255326 143.50830078 43.14550781 C133.02033905 43.25296764 122.53235977 43.3584995 112.04435754 43.46193409 C106.51726625 43.51650485 100.99018655 43.57189185 95.46312714 43.62960815 C63.64107567 43.96107004 31.82372294 44.05088145 0 44 C0 29.48 0 14.96 0 0 Z " fill="#F9E38D" transform="translate(0,0)"/>
<path d="M0 0 C34.32 0 68.64 0 104 0 C104 33.66 104 67.32 104 102 C69.68 102 35.36 102 0 102 C0 68.34 0 34.68 0 0 Z " fill="#FAE48D" transform="translate(670,720)"/>
<path d="M0 0 C33.99 0 67.98 0 103 0 C103.33 33.66 103.66 67.32 104 102 C69.68 102 35.36 102 0 102 C0 68.34 0 34.68 0 0 Z " fill="#F9E48D" transform="translate(876,328)"/>
<path d="M0 0 C33.99 0 67.98 0 103 0 C103 33.66 103 67.32 103 102 C86.190625 102.020625 69.38125 102.04125 52.0625 102.0625 C44.08848022 102.07615601 44.08848022 102.07615601 35.95336914 102.09008789 C29.48327637 102.09460449 29.48327637 102.09460449 26.45848083 102.09544373 C24.33685598 102.09698364 22.21523203 102.10050951 20.09361267 102.10557556 C16.88799509 102.11285018 13.68243119 102.11390751 10.47680664 102.11352539 C9.04884435 102.11892255 9.04884435 102.11892255 7.59203434 102.12442875 C1.11402634 102.11402634 1.11402634 102.11402634 0 101 C-0.09535055 97.86436909 -0.12549573 94.75089396 -0.11352539 91.61499023 C-0.11364593 90.61373895 -0.11376646 89.61248766 -0.11389065 88.58089542 C-0.11314122 85.32343933 -0.10551164 82.06603968 -0.09765625 78.80859375 C-0.09618692 76.80407743 -0.09516616 74.79956073 -0.09460449 72.79504395 C-0.08935054 65.34252347 -0.07538947 57.89001119 -0.0625 50.4375 C-0.041875 33.793125 -0.02125 17.14875 0 0 Z " fill="#FEFEFC" transform="translate(773,524)"/>
<path d="M0 0 C34.32 0 68.64 0 104 0 C104 33.33 104 66.66 104 101 C69.68 101 35.36 101 0 101 C0 67.67 0 34.34 0 0 Z " fill="#FEFEFD" transform="translate(360,721)"/>
<path d="M0 0 C34.32 0 68.64 0 104 0 C104 33.33 104 66.66 104 101 C69.68 101 35.36 101 0 101 C0 67.67 0 34.34 0 0 Z " fill="#FEFEFD" transform="translate(1804,719)"/>
<path d="M0 0 C33.66 0 67.32 0 102 0 C102 33.66 102 67.32 102 102 C68.34 102 34.68 102 0 102 C0 68.34 0 34.68 0 0 Z " fill="#FEFEFD" transform="translate(774,720)"/>
<path d="M0 0 C33.99 0 67.98 0 103 0 C103 33.33 103 66.66 103 101 C69.01 101 35.02 101 0 101 C0 67.67 0 34.34 0 0 Z " fill="#FEFEFD" transform="translate(567,525)"/>
<path d="M0 0 C33.99 0 67.98 0 103 0 C103 33.33 103 66.66 103 101 C69.01 101 35.02 101 0 101 C0 67.67 0 34.34 0 0 Z " fill="#FEFEFD" transform="translate(1186,328)"/>
<path d="M0 0 C34.32 0 68.64 0 104 0 C104 33 104 66 104 100 C69.68 100 35.36 100 0 100 C0 67 0 34 0 0 Z " fill="#FEFEFE" transform="translate(154,722)"/>
<path d="M0 0 C34.32 0 68.64 0 104 0 C104 33 104 66 104 100 C69.68 100 35.36 100 0 100 C0 67 0 34 0 0 Z " fill="#FEFEFE" transform="translate(1598,720)"/>
<path d="M0 0 C34.32 0 68.64 0 104 0 C104 33 104 66 104 100 C69.68 100 35.36 100 0 100 C0 67 0 34 0 0 Z " fill="#FEFEFE" transform="translate(1392,720)"/>
<path d="M0 0 C34.32 0 68.64 0 104 0 C104 33 104 66 104 100 C69.68 100 35.36 100 0 100 C0 67 0 34 0 0 Z " fill="#FEFEFE" transform="translate(360,526)"/>
<path d="M0 0 C34.32 0 68.64 0 104 0 C104 33 104 66 104 100 C69.68 100 35.36 100 0 100 C0 67 0 34 0 0 Z " fill="#FEFEFE" transform="translate(154,526)"/>
<path d="M0 0 C34.32 0 68.64 0 104 0 C104 33 104 66 104 100 C69.68 100 35.36 100 0 100 C0 67 0 34 0 0 Z " fill="#FEFEFE" transform="translate(1804,524)"/>
<path d="M0 0 C34.32 0 68.64 0 104 0 C104 33 104 66 104 100 C69.68 100 35.36 100 0 100 C0 67 0 34 0 0 Z " fill="#FEFEFE" transform="translate(1598,524)"/>
<path d="M0 0 C34.32 0 68.64 0 104 0 C104 33 104 66 104 100 C69.68 100 35.36 100 0 100 C0 67 0 34 0 0 Z " fill="#FEFEFE" transform="translate(1392,524)"/>
<path d="M0 0 C34.32 0 68.64 0 104 0 C104 33 104 66 104 100 C69.68 100 35.36 100 0 100 C0 67 0 34 0 0 Z " fill="#FEFEFE" transform="translate(360,330)"/>
<path d="M0 0 C34.32 0 68.64 0 104 0 C104 33 104 66 104 100 C69.68 100 35.36 100 0 100 C0 67 0 34 0 0 Z " fill="#FEFEFE" transform="translate(154,330)"/>
<path d="M0 0 C34.32 0 68.64 0 104 0 C104 33 104 66 104 100 C69.68 100 35.36 100 0 100 C0 67 0 34 0 0 Z " fill="#FEFEFE" transform="translate(1804,328)"/>
<path d="M0 0 C34.32 0 68.64 0 104 0 C104 33 104 66 104 100 C69.68 100 35.36 100 0 100 C0 67 0 34 0 0 Z " fill="#FEFEFE" transform="translate(1598,328)"/>
<path d="M0 0 C34.32 0 68.64 0 104 0 C104 33 104 66 104 100 C69.68 100 35.36 100 0 100 C0 67 0 34 0 0 Z " fill="#FEFEFD" transform="translate(154,136)"/>
<path d="M0 0 C34.32 0 68.64 0 104 0 C104 33 104 66 104 100 C69.68 100 35.36 100 0 100 C0 67 0 34 0 0 Z " fill="#FEFEFE" transform="translate(1804,134)"/>
<path d="M0 0 C34.32 0 68.64 0 104 0 C104 33 104 66 104 100 C69.68 100 35.36 100 0 100 C0 67 0 34 0 0 Z " fill="#FEFEFD" transform="translate(1598,134)"/>
<path d="M0 0 C34.32 0 68.64 0 104 0 C104 33 104 66 104 100 C69.68 100 35.36 100 0 100 C0 67 0 34 0 0 Z " fill="#FEFEFE" transform="translate(360,136)"/>
<path d="M0 0 C33.66 0 67.32 0 102 0 C102 33.33 102 66.66 102 101 C68.34 101 34.68 101 0 101 C0 67.67 0 34.34 0 0 Z " fill="#FEFEFE" transform="translate(980,524)"/>
<path d="M0 0 C33.99 0 67.98 0 103 0 C103 33 103 66 103 100 C69.01 100 35.02 100 0 100 C0 67 0 34 0 0 Z " fill="#F9E48E" transform="translate(1289,720)"/>
<path d="M0 0 C33.99 0 67.98 0 103 0 C103 33 103 66 103 100 C69.01 100 35.02 100 0 100 C0 67 0 34 0 0 Z " fill="#FEFEFE" transform="translate(1186,720)"/>
<path d="M0 0 C33.99 0 67.98 0 103 0 C103 33 103 66 103 100 C69.01 100 35.02 100 0 100 C0 67 0 34 0 0 Z " fill="#FEFEFE" transform="translate(1186,524)"/>
<path d="M0 0 C33.99 0 67.98 0 103 0 C103 33 103 66 103 100 C69.01 100 35.02 100 0 100 C0 67 0 34 0 0 Z " fill="#FEFEFE" transform="translate(1392,328)"/>
<path d="M0 0 C33.99 0 67.98 0 103 0 C103 33 103 66 103 100 C69.01 100 35.02 100 0 100 C0 67 0 34 0 0 Z " fill="#F9E48E" transform="translate(464,136)"/>
<path d="M0 0 C33.99 0 67.98 0 103 0 C103 33 103 66 103 100 C77.58438448 100.04010881 77.58438448 100.04010881 66.79101562 100.04882812 C59.41218349 100.05481717 52.0333637 100.0619191 44.65454102 100.07543945 C38.70883994 100.08626629 32.76315211 100.0922764 26.81744194 100.09487724 C24.54353057 100.09673186 22.26961996 100.10035317 19.99571419 100.10573006 C16.8227288 100.11293778 13.64979883 100.11399106 10.47680664 100.11352539 C9.52662659 100.11712067 8.57644653 100.12071594 7.59747314 100.12442017 C1.11405216 100.11405216 1.11405216 100.11405216 0 99 C-0.09532429 95.92541971 -0.12550074 92.87343909 -0.11352539 89.79858398 C-0.11364593 88.81715707 -0.11376646 87.83573015 -0.11389065 86.82456303 C-0.11314124 83.63171728 -0.10551176 80.43892912 -0.09765625 77.24609375 C-0.09618692 75.28129098 -0.09516615 73.31648781 -0.09460449 71.35168457 C-0.08935062 64.04695043 -0.07538955 56.74222466 -0.0625 49.4375 C-0.0315625 24.9659375 -0.0315625 24.9659375 0 0 Z " fill="#FEFEFD" transform="translate(567,136)"/>
<path d="M0 0 C34.32 0 68.64 0 104 0 C104 32.67 104 65.34 104 99 C69.68 99 35.36 99 0 99 C0 66.33 0 33.66 0 0 Z " fill="#FAE48E" transform="translate(670,136)"/>
<path d="M0 0 C25.66518144 -0.04010881 25.66518144 -0.04010881 36.56445312 -0.04882812 C44.01571358 -0.05481719 51.4669618 -0.06191919 58.91821289 -0.07543945 C64.92226865 -0.08626621 70.92631129 -0.09227638 76.93037605 -0.09487724 C79.2266161 -0.09673188 81.52285539 -0.10035321 83.81908989 -0.10573006 C87.02320814 -0.11293768 90.2272715 -0.11399106 93.43139648 -0.11352539 C94.87069267 -0.1189183 94.87069267 -0.1189183 96.33906555 -0.12442017 C97.20709808 -0.1230455 98.07513062 -0.12167084 98.96946716 -0.12025452 C99.72810279 -0.12117631 100.48673841 -0.1220981 101.268363 -0.12304783 C103 0 103 0 104 1 C104.09531084 4.04405723 104.12550333 7.06528612 104.11352539 10.10961914 C104.11364593 11.08113387 104.11376646 12.0526486 104.11389065 13.05360317 C104.11314126 16.21414375 104.10551183 19.37462615 104.09765625 22.53515625 C104.09618691 24.48010225 104.09516615 26.42504864 104.09460449 28.36999512 C104.08935066 35.60083609 104.07538959 42.83166861 104.0625 50.0625 C104.041875 66.211875 104.02125 82.36125 104 99 C69.68 99 35.36 99 0 99 C0 66.33 0 33.66 0 0 Z " fill="#FEFEFE" transform="translate(1392,135)"/>
<path d="M0 0 C33.66 0 67.32 0 102 0 C102 33 102 66 102 100 C68.34 100 34.68 100 0 100 C0 67 0 34 0 0 Z " fill="#FEFEFE" transform="translate(568,722)"/>
<path d="M0 0 C33.66 0 67.32 0 102 0 C102 33 102 66 102 100 C68.34 100 34.68 100 0 100 C0 67 0 34 0 0 Z " fill="#FAE48D" transform="translate(1496,720)"/>
<path d="M0 0 C33.66 0 67.32 0 102 0 C102 33 102 66 102 100 C68.34 100 34.68 100 0 100 C0 67 0 34 0 0 Z " fill="#FEFEFE" transform="translate(980,720)"/>
<path d="M0 0 C33.66 0 67.32 0 102 0 C102 33 102 66 102 100 C68.34 100 34.68 100 0 100 C0 67 0 34 0 0 Z " fill="#FAE48D" transform="translate(258,526)"/>
<path d="M0 0 C33.66 0 67.32 0 102 0 C102 33 102 66 102 100 C68.34 100 34.68 100 0 100 C0 67 0 34 0 0 Z " fill="#FAE48E" transform="translate(52,526)"/>
<path d="M0 0 C33.66 0 67.32 0 102 0 C102 33 102 66 102 100 C68.34 100 34.68 100 0 100 C0 67 0 34 0 0 Z " fill="#FAE48E" transform="translate(1290,524)"/>
<path d="M0 0 C33.66 0 67.32 0 102 0 C102 33 102 66 102 100 C68.34 100 34.68 100 0 100 C0 67 0 34 0 0 Z " fill="#FEFEFE" transform="translate(774,330)"/>
<path d="M0 0 C33.66 0 67.32 0 102 0 C102 33 102 66 102 100 C68.34 100 34.68 100 0 100 C0 67 0 34 0 0 Z " fill="#FEFEFE" transform="translate(568,330)"/>
<path d="M0 0 C33.66 0 67.32 0 102 0 C102 33 102 66 102 100 C68.34 100 34.68 100 0 100 C0 67 0 34 0 0 Z " fill="#FAE48D" transform="translate(1702,134)"/>
<path d="M0 0 C34.32 0 68.64 0 104 0 C104 32.34 104 64.68 104 98 C69.68 98 35.36 98 0 98 C0 65.66 0 33.32 0 0 Z " fill="#FEFEFD" transform="translate(360,916)"/>
<path d="M0 0 C34.32 0 68.64 0 104 0 C104 32.34 104 64.68 104 98 C69.68 98 35.36 98 0 98 C0 65.66 0 33.32 0 0 Z " fill="#FEFEFD" transform="translate(154,918)"/>
<path d="M0 0 C34.32 0 68.64 0 104 0 C104 32.34 104 64.68 104 98 C69.68 98 35.36 98 0 98 C0 65.66 0 33.32 0 0 Z " fill="#FEFEFD" transform="translate(1804,915)"/>
<path d="M0 0 C34.32 0 68.64 0 104 0 C104 32.34 104 64.68 104 98 C69.68 98 35.36 98 0 98 C0 65.66 0 33.32 0 0 Z " fill="#FEFEFD" transform="translate(1598,916)"/>
<path d="M0 0 C34.32 0 68.64 0 104 0 C104 32.34 104 64.68 104 98 C69.68 98 35.36 98 0 98 C0 65.66 0 33.32 0 0 Z " fill="#FEFEFE" transform="translate(1392,916)"/>
<path d="M0 0 C34.32 0 68.64 0 104 0 C104 32.34 104 64.68 104 98 C69.68 98 35.36 98 0 98 C0 65.66 0 33.32 0 0 Z " fill="#FEFEFD" transform="translate(1186,916)"/>
<path d="M0 0 C34.32 0 68.64 0 104 0 C104 32.34 104 64.68 104 98 C69.68 98 35.36 98 0 98 C0 65.66 0 33.32 0 0 Z " fill="#FAE48E" transform="translate(670,916)"/>
<path d="M0 0 C67.98 0 135.96 0 206 0 C206 32.34 206 64.68 206 98 C172.34 98 138.68 98 104 98 C104 65.99 104 33.98 104 1 C69.68 1 35.36 1 0 1 C0 0.67 0 0.34 0 0 Z " fill="#FAE48D" transform="translate(1598,915)"/>
<path d="M0 0 C33.66 0 67.32 0 102 0 C102 32.67 102 65.34 102 99 C68.34 99 34.68 99 0 99 C0 66.33 0 33.66 0 0 Z " fill="#FEFEFE" transform="translate(980,330)"/>
<path d="M0 0 C33.66 0 67.32 0 102 0 C102 32.67 102 65.34 102 99 C68.34 99 34.68 99 0 99 C0 66.33 0 33.66 0 0 Z " fill="#FEFEFE" transform="translate(774,136)"/>
<path d="M0 0 C34.32 0 68.64 0 104 0 C103.67 32.34 103.34 64.68 103 98 C69.01 98 35.02 98 0 98 C0 65.66 0 33.32 0 0 Z " fill="#FAE48D" transform="translate(464,916)"/>
<path d="M0 0 C33.99 0 67.98 0 103 0 C103 32.34 103 64.68 103 98 C69.01 98 35.02 98 0 98 C0 65.66 0 33.32 0 0 Z " fill="#FEFEFE" transform="translate(1186,136)"/>
<path d="M0 0 C0.95018005 0.00359528 1.90036011 0.00719055 2.8793335 0.01089478 C4.37184883 0.01067574 4.37184883 0.01067574 5.89451599 0.01045227 C9.20059348 0.01115186 12.5066154 0.01894637 15.81268311 0.02676392 C18.09811879 0.02862793 20.38355487 0.03005191 22.66899109 0.03105164 C28.69751073 0.03487809 34.72600644 0.04470947 40.7545166 0.05575562 C47.9806392 0.06776092 55.20676977 0.07237137 62.43289948 0.07820892 C73.42279193 0.08792115 84.41263185 0.10707683 95.40252686 0.12442017 C95.40252686 32.46442017 95.40252686 64.80442017 95.40252686 98.12442017 C61.41252686 98.12442017 27.42252686 98.12442017 -7.59747314 98.12442017 C-7.61809814 82.14004517 -7.63872314 66.15567017 -7.65997314 49.68692017 C-7.66907715 44.63194214 -7.67818115 39.57696411 -7.68756104 34.36880493 C-7.69207764 28.21609497 -7.69207764 28.21609497 -7.69291687 25.33961487 C-7.69445671 23.32215657 -7.69798245 21.30469922 -7.70304871 19.2872467 C-7.71032387 16.23889557 -7.71138064 13.19060089 -7.71099854 10.14224243 C-7.7163957 8.78454286 -7.7163957 8.78454286 -7.72190189 7.39941502 C-7.70930401 -0.06185211 -7.43357211 0.01188745 0 0 Z " fill="#FEFEFD" transform="translate(574.5974731445313,915.8755798339844)"/>
<path d="M0 0 C33.66 0 67.32 0 102 0 C102 32.34 102 64.68 102 98 C68.34 98 34.68 98 0 98 C0 65.66 0 33.32 0 0 Z " fill="#FAE38D" transform="translate(52,918)"/>
<path d="M0 0 C33.66 0 67.32 0 102 0 C102 32.34 102 64.68 102 98 C68.34 98 34.68 98 0 98 C0 65.66 0 33.32 0 0 Z " fill="#FEFEFE" transform="translate(980,916)"/>
<path d="M0 0 C33.66 0 67.32 0 102 0 C102 32.34 102 64.68 102 98 C68.34 98 34.68 98 0 98 C0 65.66 0 33.32 0 0 Z " fill="#FEFEFE" transform="translate(774,916)"/>
<path d="M0 0 C33.66 0 67.32 0 102 0 C102 32.34 102 64.68 102 98 C68.34 98 34.68 98 0 98 C0 65.66 0 33.32 0 0 Z " fill="#FEFEFE" transform="translate(980,136)"/>
<path d="M0 0 C34.32 0 68.64 0 104 0 C104 31.68 104 63.36 104 96 C69.68 96 35.36 96 0 96 C0 64.32 0 32.64 0 0 Z " fill="#F9E48E" transform="translate(1392,820)"/>
<path d="M0 0 C34.32 0 68.64 0 104 0 C104 31.68 104 63.36 104 96 C69.68 96 35.36 96 0 96 C0 64.32 0 32.64 0 0 Z " fill="#F9E48E" transform="translate(1392,624)"/>
<path d="M0 0 C34.32 0 68.64 0 104 0 C104 31.68 104 63.36 104 96 C69.68 96 35.36 96 0 96 C0 64.32 0 32.64 0 0 Z " fill="#FAE48E" transform="translate(154,626)"/>
<path d="M0 0 C34.32 0 68.64 0 104 0 C104 31.68 104 63.36 104 96 C69.68 96 35.36 96 0 96 C0 64.32 0 32.64 0 0 Z " fill="#F9E48E" transform="translate(1598,624)"/>
<path d="M0 0 C34.32 0 68.64 0 104 0 C104 31.68 104 63.36 104 96 C69.68 96 35.36 96 0 96 C0 64.32 0 32.64 0 0 Z " fill="#FAE48E" transform="translate(1598,428)"/>
<path d="M0 0 C34.32 0 68.64 0 104 0 C104 31.68 104 63.36 104 96 C69.68 96 35.36 96 0 96 C0 64.32 0 32.64 0 0 Z " fill="#FAE48E" transform="translate(154,430)"/>
<path d="M0 0 C68.31 0 136.62 0 207 0 C207 15.84 207 31.68 207 48 C138.69 48 70.38 48 0 48 C0 32.16 0 16.32 0 0 Z " fill="#FAE48E" transform="translate(567,1108)"/>
<path d="M0 0 C33.99 0 67.98 0 103 0 C103 31.68 103 63.36 103 96 C69.01 96 35.02 96 0 96 C0 64.32 0 32.64 0 0 Z " fill="#FAE48E" transform="translate(1186,820)"/>
<path d="M0 0 C33.99 0 67.98 0 103 0 C103 31.68 103 63.36 103 96 C69.01 96 35.02 96 0 96 C0 64.32 0 32.64 0 0 Z " fill="#F8D968" transform="translate(1289,820)"/>
<path d="M0 0 C33.99 0 67.98 0 103 0 C103 31.68 103 63.36 103 96 C69.01 96 35.02 96 0 96 C0 64.32 0 32.64 0 0 Z " fill="#F9D968" transform="translate(1908,428)"/>
<path d="M0 0 C33.99 0 67.98 0 103 0 C103.020625 15.654375 103.04125 31.30875 103.0625 47.4375 C103.071604 52.38806396 103.08070801 57.33862793 103.09008789 62.43920898 C103.09460449 68.46496582 103.09460449 68.46496582 103.09544373 71.28211975 C103.09698354 73.25791143 103.10050922 75.23370214 103.10557556 77.20948792 C103.11285096 80.19493249 103.11390749 83.18031943 103.11352539 86.16577148 C103.1171235 87.05216781 103.12072161 87.93856413 103.12442875 88.85182095 C103.11402634 94.88597366 103.11402634 94.88597366 102 96 C98.83387337 96.09536242 95.68959372 96.12550636 92.52319336 96.11352539 C91.03067802 96.11374443 91.03067802 96.11374443 89.50801086 96.1139679 C86.20193338 96.11326831 82.89591146 96.10547379 79.58984375 96.09765625 C77.30440807 96.09579223 75.01897199 96.09436825 72.73353577 96.09336853 C66.70501613 96.08954207 60.67652041 96.0797107 54.64801025 96.06866455 C47.42188766 96.05665925 40.19575709 96.0520488 32.96962738 96.04621124 C21.97973493 96.03649901 10.98989501 96.01734334 0 96 C0 64.32 0 32.64 0 0 Z " fill="#F9D968" transform="translate(1908,624)"/>
<path d="M0 0 C33.66 0 67.32 0 102 0 C102 31.68 102 63.36 102 96 C68.01 96 34.02 96 -1 96 C-1.020625 80.53125 -1.04125 65.0625 -1.0625 49.125 C-1.071604 44.23574707 -1.08070801 39.34649414 -1.09008789 34.30908203 C-1.09460449 28.35131836 -1.09460449 28.35131836 -1.09544373 25.56466675 C-1.09698207 23.61308566 -1.10050478 21.66150553 -1.10557556 19.70993042 C-1.1128625 16.75858909 -1.11390709 13.80730597 -1.11352539 10.85595703 C-1.1171235 9.98252718 -1.12072161 9.10909733 -1.12442875 8.20919991 C-1.11402634 2.22805267 -1.11402634 2.22805267 0 0 Z " fill="#F8D968" transform="translate(1290,624)"/>
<path d="M0 0 C33.66 0 67.32 0 102 0 C102 31.68 102 63.36 102 96 C68.34 96 34.68 96 0 96 C-1.07947061 91.68211754 -1.14022803 87.7261239 -1.12939453 83.31591797 C-1.13114685 82.4407251 -1.13289917 81.56553223 -1.13470459 80.66381836 C-1.13910317 77.77325453 -1.13619262 74.88275195 -1.1328125 71.9921875 C-1.13348599 69.98487333 -1.13445639 67.97755925 -1.13571167 65.97024536 C-1.13718584 61.76547468 -1.13504263 57.56072524 -1.13037109 53.35595703 C-1.12466663 47.95750175 -1.12795913 42.5590961 -1.13394356 37.16064262 C-1.13755047 33.01721825 -1.13641011 28.87380573 -1.13381577 24.73038101 C-1.13314724 22.73919799 -1.13397234 20.7480139 -1.13629532 18.75683212 C-1.13882476 15.97962324 -1.13497743 13.20249576 -1.12939453 10.42529297 C-1.13141876 9.59720123 -1.13344299 8.7691095 -1.13552856 7.91592407 C-1.11426558 2.22853116 -1.11426558 2.22853116 0 0 Z " fill="#F8D968" transform="translate(1084,820)"/>
<path d="M0 0 C34.32 0 68.64 0 104 0 C104 31.35 104 62.7 104 95 C69.68 95 35.36 95 0 95 C0 63.65 0 32.3 0 0 Z " fill="#F8D968" transform="translate(876,821)"/>
<path d="M0 0 C34.32 0 68.64 0 104 0 C104 31.35 104 62.7 104 95 C69.68 95 35.36 95 0 95 C0 63.65 0 32.3 0 0 Z " fill="#FAE48D" transform="translate(1804,624)"/>
<path d="M0 0 C0.86099304 -0.00137466 1.72198608 -0.00274933 2.60906982 -0.00416565 C3.5556546 -0.00057037 4.50223938 0.0030249 5.47750854 0.00672913 C6.47266479 0.0065831 7.46782104 0.00643707 8.49313354 0.00628662 C11.79377395 0.0069852 15.09435843 0.01477508 18.39498901 0.02259827 C20.67899545 0.02446264 22.96300229 0.02588645 25.24700928 0.02688599 C31.26729429 0.03070965 37.2875553 0.04053866 43.30783081 0.05158997 C50.52646895 0.06360279 57.74511511 0.06820705 64.96376038 0.07404327 C75.93824914 0.08375047 86.91268518 0.10290811 97.88717651 0.12025452 C97.88717651 31.47025452 97.88717651 62.82025452 97.88717651 95.12025452 C63.56717651 95.12025452 29.24717651 95.12025452 -6.11282349 95.12025452 C-6.11282349 64.10025452 -6.11282349 33.08025452 -6.11282349 1.12025452 C-3.81890739 -0.02670353 -2.54945199 -0.003132 0 0 Z " fill="#F8D968" transform="translate(1088.1128234863281,624.8797454833984)"/>
<path d="M0 0 C34.32 0 68.64 0 104 0 C104.0309375 23.2340625 104.0309375 23.2340625 104.0625 46.9375 C104.071604 51.83585693 104.08070801 56.73421387 104.09008789 61.78100586 C104.09460449 67.74328613 104.09460449 67.74328613 104.09544373 70.53077698 C104.09698352 72.48573534 104.10050917 74.44069273 104.10557556 76.39564514 C104.11285108 79.34963644 104.11390748 82.3035695 104.11352539 85.25756836 C104.1171235 86.13459632 104.12072161 87.01162428 104.12442875 87.91522884 C104.11402634 93.88597366 104.11402634 93.88597366 103 95 C101.65927183 95.09527037 100.31357497 95.1218877 98.96946716 95.12025452 C98.10143463 95.12162918 97.2334021 95.12300385 96.33906555 95.12442017 C95.37953476 95.12082489 94.42000397 95.11722961 93.43139648 95.11352539 C92.42663269 95.11367142 91.4218689 95.11381744 90.38665771 95.1139679 C87.04811483 95.1132683 83.70962695 95.10547374 80.37109375 95.09765625 C78.06323782 95.09579224 75.75538149 95.09436826 73.44752502 95.09336853 C67.35982174 95.08954204 61.27214214 95.07971065 55.18444824 95.06866455 C47.88740783 95.05665932 40.59035952 95.05204881 33.29331207 95.04621124 C22.19552488 95.03649896 11.09778972 95.01734331 0 95 C0 63.65 0 32.3 0 0 Z " fill="#F9D968" transform="translate(464,430)"/>
<path d="M0 0 C33.66 0 67.32 0 102 0 C102 31.68 102 63.36 102 96 C68.34 96 34.68 96 0 96 C0 64.32 0 32.64 0 0 Z " fill="#F9D968" transform="translate(1496,820)"/>
<path d="M0 0 C33.66 0 67.32 0 102 0 C102 31.68 102 63.36 102 96 C68.34 96 34.68 96 0 96 C0 64.32 0 32.64 0 0 Z " fill="#F9D968" transform="translate(258,626)"/>
<path d="M0 0 C33.66 0 67.32 0 102 0 C102 31.68 102 63.36 102 96 C68.34 96 34.68 96 0 96 C0 64.32 0 32.64 0 0 Z " fill="#F9D968" transform="translate(1702,624)"/>
<path d="M0 0 C33.66 0 67.32 0 102 0 C102 31.68 102 63.36 102 96 C68.34 96 34.68 96 0 96 C0 64.32 0 32.64 0 0 Z " fill="#F9D968" transform="translate(1496,624)"/>
<path d="M0 0 C33.66 0 67.32 0 102 0 C102 31.68 102 63.36 102 96 C68.34 96 34.68 96 0 96 C0 64.32 0 32.64 0 0 Z " fill="#F9D968" transform="translate(1496,428)"/>
<path d="M0 0 C33.66 0 67.32 0 102 0 C102 31.68 102 63.36 102 96 C68.34 96 34.68 96 0 96 C0 64.32 0 32.64 0 0 Z " fill="#F9D968" transform="translate(258,430)"/>
<path d="M0 0 C33.66 0 67.32 0 102 0 C102 31.68 102 63.36 102 96 C68.34 96 34.68 96 0 96 C0 64.32 0 32.64 0 0 Z " fill="#F9D968" transform="translate(52,430)"/>
<path d="M0 0 C33.66 0 67.32 0 102 0 C102 31.68 102 63.36 102 96 C68.34 96 34.68 96 0 96 C0 64.32 0 32.64 0 0 Z " fill="#F9D968" transform="translate(1702,428)"/>
<path d="M0 0 C0 31.35 0 62.7 0 95 C-33.99 95 -67.98 95 -103 95 C-103.020625 79.510625 -103.04125 64.02125 -103.0625 48.0625 C-103.071604 43.16414307 -103.08070801 38.26578613 -103.09008789 33.21899414 C-103.09460449 27.25671387 -103.09460449 27.25671387 -103.09544373 24.46922302 C-103.09698352 22.51426466 -103.10050917 20.55930727 -103.10557556 18.60435486 C-103.11285108 15.65036356 -103.11390748 12.6964305 -103.11352539 9.74243164 C-103.1171235 8.86540368 -103.12072161 7.98837572 -103.12442875 7.08477116 C-103.11402634 1.11402634 -103.11402634 1.11402634 -102 0 C-98.94209906 -0.13072294 -95.90562607 -0.19675865 -92.84619141 -0.22119141 C-91.88526077 -0.2326973 -90.92433014 -0.24420319 -89.9342804 -0.25605774 C-86.74007422 -0.29290583 -83.54584794 -0.32245463 -80.3515625 -0.3515625 C-78.14057115 -0.37466454 -75.92958278 -0.39805474 -73.71859741 -0.42172241 C-69.07642145 -0.47025828 -64.43422775 -0.51517635 -59.79199219 -0.55761719 C-53.83409941 -0.61239049 -47.87634464 -0.67622426 -41.91857338 -0.74279213 C-37.34965389 -0.7928191 -32.78069618 -0.83796551 -28.21171188 -0.88163376 C-26.01479921 -0.90323797 -23.81790122 -0.92639105 -21.62102127 -0.9510994 C-18.55156945 -0.98490349 -15.48212844 -1.01213189 -12.41259766 -1.03759766 C-11.04254829 -1.05466011 -11.04254829 -1.05466011 -9.64482117 -1.07206726 C-8.80914108 -1.07766159 -7.973461 -1.08325592 -7.11245728 -1.08901978 C-6.38646143 -1.09601709 -5.66046558 -1.10301441 -4.91246986 -1.11022377 C-3 -1 -3 -1 0 0 Z " fill="#F8D968" transform="translate(1392,429)"/>
<path d="M0 0 C33.99 0 67.98 0 103 0 C103.0309375 23.2340625 103.0309375 23.2340625 103.0625 46.9375 C103.071604 51.83585693 103.08070801 56.73421387 103.09008789 61.78100586 C103.09460449 67.74328613 103.09460449 67.74328613 103.09544373 70.53077698 C103.09698352 72.48573534 103.10050917 74.44069273 103.10557556 76.39564514 C103.11285108 79.34963644 103.11390748 82.3035695 103.11352539 85.25756836 C103.1171235 86.13459632 103.12072161 87.01162428 103.12442875 87.91522884 C103.11402634 93.88597366 103.11402634 93.88597366 102 95 C98.90556961 95.10067221 95.83341607 95.13614292 92.73852539 95.12939453 C91.76623489 95.13114685 90.7939444 95.13289917 89.79219055 95.13470459 C86.56066125 95.13912542 83.32918616 95.13618408 80.09765625 95.1328125 C77.8618519 95.13348553 75.62604763 95.13445554 73.39024353 95.13571167 C68.69676011 95.137189 64.00329567 95.13503316 59.30981445 95.13037109 C53.28239204 95.12467708 47.25501419 95.12795053 41.22759342 95.13394356 C36.60806439 95.13755102 31.98854599 95.13640967 27.36901665 95.13381577 C25.14617342 95.13314684 22.92332925 95.13397372 20.70048714 95.13629532 C17.59725503 95.1388245 14.4940958 95.13497729 11.39086914 95.12939453 C10.46455688 95.13141876 9.53824463 95.13344299 8.5838623 95.13552856 C7.31978294 95.13129883 7.31978294 95.13129883 6.03016663 95.12698364 C5.29587464 95.12660662 4.56158266 95.12622959 3.80503941 95.12584114 C2 95 2 95 0 94 C0 62.98 0 31.96 0 0 Z " fill="#F9D968" transform="translate(464,626)"/>
<path d="M0 0 C34.32 0 68.64 0 104 0 C104 31.02 104 62.04 104 94 C69.68 94 35.36 94 0 94 C0 62.98 0 31.96 0 0 Z " fill="#F9D968" transform="translate(670,1014)"/>
<path d="M0 0 C34.32 0 68.64 0 104 0 C104 31.02 104 62.04 104 94 C69.68 94 35.36 94 0 94 C0 62.98 0 31.96 0 0 Z " fill="#FAE48D" transform="translate(360,822)"/>
<path d="M0 0 C34.32 0 68.64 0 104 0 C104 31.02 104 62.04 104 94 C69.68 94 35.36 94 0 94 C0 62.98 0 31.96 0 0 Z " fill="#F8D968" transform="translate(876,626)"/>
<path d="M0 0 C34.32 0 68.64 0 104 0 C104 31.02 104 62.04 104 94 C69.68 94 35.36 94 0 94 C0 62.98 0 31.96 0 0 Z " fill="#F8D968" transform="translate(1082,430)"/>
<path d="M0 0 C34.32 0 68.64 0 104 0 C104 31.02 104 62.04 104 94 C69.68 94 35.36 94 0 94 C0 62.98 0 31.96 0 0 Z " fill="#F9D968" transform="translate(876,430)"/>
<path d="M0 0 C34.32 0 68.64 0 104 0 C104 31.02 104 62.04 104 94 C69.68 94 35.36 94 0 94 C0 62.98 0 31.96 0 0 Z " fill="#F9D968" transform="translate(1082,234)"/>
<path d="M0 0 C34.32 0 68.64 0 104 0 C104 31.02 104 62.04 104 94 C69.68 94 35.36 94 0 94 C0 62.98 0 31.96 0 0 Z " fill="#FAE48D" transform="translate(360,236)"/>
<path d="M0 0 C34.32 0 68.64 0 104 0 C104 31.02 104 62.04 104 94 C69.68 94 35.36 94 0 94 C0 62.98 0 31.96 0 0 Z " fill="#FAE48E" transform="translate(154,236)"/>
<path d="M0 0 C34.32 0 68.64 0 104 0 C104 31.02 104 62.04 104 94 C69.68 94 35.36 94 0 94 C0 62.98 0 31.96 0 0 Z " fill="#FAE48D" transform="translate(1804,234)"/>
<path d="M0 0 C34.32 0 68.64 0 104 0 C104 31.02 104 62.04 104 94 C69.68 94 35.36 94 0 94 C0 62.98 0 31.96 0 0 Z " fill="#FAE48E" transform="translate(1598,234)"/>
<path d="M0 0 C34.32 0 68.64 0 104 0 C104 31.02 104 62.04 104 94 C69.68 94 35.36 94 0 94 C0 62.98 0 31.96 0 0 Z " fill="#FAE48E" transform="translate(1804,40)"/>
<path d="M0 0 C34.32 0 68.64 0 104 0 C104 31.02 104 62.04 104 94 C69.68 94 35.36 94 0 94 C0 62.98 0 31.96 0 0 Z " fill="#F9D968" transform="translate(876,42)"/>
<path d="M0 0 C34.32 0 68.64 0 104 0 C104.020625 15.324375 104.04125 30.64875 104.0625 46.4375 C104.071604 51.2836499 104.08070801 56.1297998 104.09008789 61.12280273 C104.09460449 67.02160645 104.09460449 67.02160645 104.09544373 69.7794342 C104.09698351 71.71355926 104.10050913 73.64768333 104.10557556 75.58180237 C104.1128512 78.5043404 104.11390748 81.42681956 104.11352539 84.34936523 C104.1171235 85.21702483 104.12072161 86.08468443 104.12442875 86.97863674 C104.11402634 92.88597366 104.11402634 92.88597366 103 94 C101.65927183 94.09527037 100.31357497 94.1218877 98.96946716 94.12025452 C98.10143463 94.12162918 97.2334021 94.12300385 96.33906555 94.12442017 C95.37953476 94.12082489 94.42000397 94.11722961 93.43139648 94.11352539 C92.42663269 94.11367142 91.4218689 94.11381744 90.38665771 94.1139679 C87.04811483 94.1132683 83.70962695 94.10547374 80.37109375 94.09765625 C78.06323782 94.09579224 75.75538149 94.09436826 73.44752502 94.09336853 C67.35982174 94.08954204 61.27214214 94.07971065 55.18444824 94.06866455 C47.88740783 94.05665932 40.59035952 94.05204881 33.29331207 94.04621124 C22.19552488 94.03649896 11.09778972 94.01734331 0 94 C0 62.98 0 31.96 0 0 Z " fill="#FAE48E" transform="translate(1392,1014)"/>
<path d="M0 0 C34.32 0 68.64 0 104 0 C104 31.02 104 62.04 104 94 C78.33481856 94.04010881 78.33481856 94.04010881 67.43554688 94.04882812 C59.98428642 94.05481719 52.5330382 94.06191919 45.08178711 94.07543945 C39.07773135 94.08626621 33.07368871 94.09227638 27.06962395 94.09487724 C24.7733839 94.09673188 22.47714461 94.10035321 20.18091011 94.10573006 C16.97679186 94.11293768 13.7727285 94.11399106 10.56860352 94.11352539 C9.12930733 94.1189183 9.12930733 94.1189183 7.66093445 94.12442017 C6.79290192 94.1230455 5.92486938 94.12167084 5.03053284 94.12025452 C3.8925794 94.12163721 3.8925794 94.12163721 2.731637 94.12304783 C1 94 1 94 0 93 C-0.0952402 90.10853375 -0.12551721 87.2411119 -0.11352539 84.34936523 C-0.11364593 83.42741143 -0.11376646 82.50545763 -0.11389065 81.55556583 C-0.11314131 78.55655101 -0.10551216 75.55759752 -0.09765625 72.55859375 C-0.09618689 70.71293162 -0.09516615 68.86726908 -0.09460449 67.02160645 C-0.08935087 60.1602313 -0.0753898 53.29886505 -0.0625 46.4375 C-0.041875 31.113125 -0.02125 15.78875 0 0 Z " fill="#F9D968" transform="translate(1082,1014)"/>
<path d="M0 0 C25.66518144 -0.04010881 25.66518144 -0.04010881 36.56445312 -0.04882812 C44.01571358 -0.05481719 51.4669618 -0.06191919 58.91821289 -0.07543945 C64.92226865 -0.08626621 70.92631129 -0.09227638 76.93037605 -0.09487724 C79.2266161 -0.09673188 81.52285539 -0.10035321 83.81908989 -0.10573006 C87.02320814 -0.11293768 90.2272715 -0.11399106 93.43139648 -0.11352539 C94.87069267 -0.1189183 94.87069267 -0.1189183 96.33906555 -0.12442017 C97.20709808 -0.1230455 98.07513062 -0.12167084 98.96946716 -0.12025452 C99.72810279 -0.12117631 100.48673841 -0.1220981 101.268363 -0.12304783 C103 0 103 0 104 1 C104.0952402 3.89146625 104.12551721 6.7588881 104.11352539 9.65063477 C104.11364593 10.57258857 104.11376646 11.49454237 104.11389065 12.44443417 C104.11314131 15.44344899 104.10551216 18.44240248 104.09765625 21.44140625 C104.09618689 23.28706838 104.09516615 25.13273092 104.09460449 26.97839355 C104.08935087 33.8397687 104.0753898 40.70113495 104.0625 47.5625 C104.041875 62.886875 104.02125 78.21125 104 94 C69.68 94 35.36 94 0 94 C0 62.98 0 31.96 0 0 Z " fill="#F9D968" transform="translate(464,822)"/>
<path d="M0 0 C34.32 0 68.64 0 104 0 C104.020625 15.324375 104.04125 30.64875 104.0625 46.4375 C104.071604 51.2836499 104.08070801 56.1297998 104.09008789 61.12280273 C104.09460449 67.02160645 104.09460449 67.02160645 104.09544373 69.7794342 C104.09698351 71.71355926 104.10050913 73.64768333 104.10557556 75.58180237 C104.1128512 78.5043404 104.11390748 81.42681956 104.11352539 84.34936523 C104.1171235 85.21702483 104.12072161 86.08468443 104.12442875 86.97863674 C104.11402634 92.88597366 104.11402634 92.88597366 103 94 C101.65927183 94.09527037 100.31357497 94.1218877 98.96946716 94.12025452 C98.10143463 94.12162918 97.2334021 94.12300385 96.33906555 94.12442017 C95.37953476 94.12082489 94.42000397 94.11722961 93.43139648 94.11352539 C92.42663269 94.11367142 91.4218689 94.11381744 90.38665771 94.1139679 C87.04811483 94.1132683 83.70962695 94.10547374 80.37109375 94.09765625 C78.06323782 94.09579224 75.75538149 94.09436826 73.44752502 94.09336853 C67.35982174 94.08954204 61.27214214 94.07971065 55.18444824 94.06866455 C47.88740783 94.05665932 40.59035952 94.05204881 33.29331207 94.04621124 C22.19552488 94.03649896 11.09778972 94.01734331 0 94 C0 62.98 0 31.96 0 0 Z " fill="#F9D968" transform="translate(1908,234)"/>
<path d="M0 0 C34.32 0 68.64 0 104 0 C104.020625 15.324375 104.04125 30.64875 104.0625 46.4375 C104.071604 51.2836499 104.08070801 56.1297998 104.09008789 61.12280273 C104.09460449 67.02160645 104.09460449 67.02160645 104.09544373 69.7794342 C104.09698351 71.71355926 104.10050913 73.64768333 104.10557556 75.58180237 C104.1128512 78.5043404 104.11390748 81.42681956 104.11352539 84.34936523 C104.1171235 85.21702483 104.12072161 86.08468443 104.12442875 86.97863674 C104.11402634 92.88597366 104.11402634 92.88597366 103 94 C101.65927183 94.09527037 100.31357497 94.1218877 98.96946716 94.12025452 C98.10143463 94.12162918 97.2334021 94.12300385 96.33906555 94.12442017 C95.37953476 94.12082489 94.42000397 94.11722961 93.43139648 94.11352539 C92.42663269 94.11367142 91.4218689 94.11381744 90.38665771 94.1139679 C87.04811483 94.1132683 83.70962695 94.10547374 80.37109375 94.09765625 C78.06323782 94.09579224 75.75538149 94.09436826 73.44752502 94.09336853 C67.35982174 94.08954204 61.27214214 94.07971065 55.18444824 94.06866455 C47.88740783 94.05665932 40.59035952 94.05204881 33.29331207 94.04621124 C22.19552488 94.03649896 11.09778972 94.01734331 0 94 C0 62.98 0 31.96 0 0 Z " fill="#F9D968" transform="translate(1082,42)"/>
<path d="M0 0 C33.66 0 67.32 0 102 0 C102 31.35 102 62.7 102 95 C68.34 95 34.68 95 0 95 C0 63.65 0 32.3 0 0 Z " fill="#F9D968" transform="translate(258,822)"/>
<path d="M0 0 C33.66 0 67.32 0 102 0 C102 31.35 102 62.7 102 95 C68.34 95 34.68 95 0 95 C0 63.65 0 32.3 0 0 Z " fill="#F8D968" transform="translate(1702,820)"/>
<path d="M0 0 C33.99 0 67.98 0 103 0 C103 31.02 103 62.04 103 94 C69.01 94 35.02 94 0 94 C0 62.98 0 31.96 0 0 Z " fill="#FAE48E" transform="translate(1186,1014)"/>
<path d="M0 0 C33.99 0 67.98 0 103 0 C103 31.02 103 62.04 103 94 C69.01 94 35.02 94 0 94 C0 62.98 0 31.96 0 0 Z " fill="#F8D968" transform="translate(1908,820)"/>
<path d="M0 0 C33.99 0 67.98 0 103 0 C103 31.02 103 62.04 103 94 C69.01 94 35.02 94 0 94 C0 62.98 0 31.96 0 0 Z " fill="#FAE48E" transform="translate(1186,234)"/>
<path d="M0 0 C33.99 0 67.98 0 103 0 C103 31.02 103 62.04 103 94 C69.01 94 35.02 94 0 94 C0 62.98 0 31.96 0 0 Z " fill="#F8D968" transform="translate(1289,234)"/>
<path d="M0 0 C33.99 0 67.98 0 103 0 C103 31.02 103 62.04 103 94 C69.01 94 35.02 94 0 94 C0 62.98 0 31.96 0 0 Z " fill="#F8D968" transform="translate(464,42)"/>
<path d="M0 0 C33.99 0 67.98 0 103 0 C103.020625 15.324375 103.04125 30.64875 103.0625 46.4375 C103.071604 51.2836499 103.08070801 56.1297998 103.09008789 61.12280273 C103.09460449 67.02160645 103.09460449 67.02160645 103.09544373 69.7794342 C103.09698351 71.71355926 103.10050913 73.64768333 103.10557556 75.58180237 C103.1128512 78.5043404 103.11390748 81.42681956 103.11352539 84.34936523 C103.1171235 85.21702483 103.12072161 86.08468443 103.12442875 86.97863674 C103.11402634 92.88597366 103.11402634 92.88597366 102 94 C98.83387337 94.09536242 95.68959372 94.12550636 92.52319336 94.11352539 C91.03067802 94.11374443 91.03067802 94.11374443 89.50801086 94.1139679 C86.20193338 94.11326831 82.89591146 94.10547379 79.58984375 94.09765625 C77.30440807 94.09579223 75.01897199 94.09436825 72.73353577 94.09336853 C66.70501613 94.08954207 60.67652041 94.0797107 54.64801025 94.06866455 C47.42188766 94.05665925 40.19575709 94.0520488 32.96962738 94.04621124 C21.97973493 94.03649901 10.98989501 94.01734334 0 94 C0 62.98 0 31.96 0 0 Z " fill="#F9D968" transform="translate(464,236)"/>
<path d="M0 0 C33.99 0 67.98 0 103 0 C103 31.02 103 62.04 103 94 C77.87405922 94.04010881 77.87405922 94.04010881 67.1953125 94.04882812 C59.8977791 94.05481478 52.6002582 94.0619104 45.30273438 94.07543945 C39.42186725 94.08627438 33.54101351 94.09227813 27.66013718 94.09487724 C25.41217208 94.09673039 23.16420774 94.10034892 20.91624832 94.10573006 C17.77699425 94.11294849 14.63779614 94.1139906 11.49853516 94.11352539 C10.56130112 94.11712067 9.62406708 94.12071594 8.65843201 94.12442017 C7.80585312 94.1230455 6.95327423 94.12167084 6.07485962 94.12025452 C5.33189447 94.12117631 4.58892933 94.1220981 3.82345009 94.12304783 C2 94 2 94 0 93 C0 62.31 0 31.62 0 0 Z " fill="#F8D968" transform="translate(51,1016)"/>
<path d="M0 0 C33.66 0 67.32 0 102 0 C103.65871422 3.31742843 103.12887569 7.02605998 103.11352539 10.67236328 C103.11364593 11.58452543 103.11376646 12.49668758 103.11389065 13.43649101 C103.1131425 16.39778939 103.10551872 19.35902533 103.09765625 22.3203125 C103.09618653 24.1451006 103.095166 25.96988913 103.09460449 27.79467773 C103.08935513 34.57145824 103.07539401 41.34822973 103.0625 48.125 C103.041875 63.26375 103.02125 78.4025 103 94 C69.01 94 35.02 94 0 94 C0 62.98 0 31.96 0 0 Z " fill="#F8D968" transform="translate(1908,40)"/>
<path d="M0 0 C33.66 0 67.32 0 102 0 C102 31.02 102 62.04 102 94 C68.34 94 34.68 94 0 94 C0 62.98 0 31.96 0 0 Z " fill="#F9E48E" transform="translate(568,1014)"/>
<path d="M0 0 C33.66 0 67.32 0 102 0 C102 31.02 102 62.04 102 94 C68.34 94 34.68 94 0 94 C0 62.98 0 31.96 0 0 Z " fill="#F9E48D" transform="translate(774,822)"/>
<path d="M0 0 C33.66 0 67.32 0 102 0 C102 31.02 102 62.04 102 94 C68.34 94 34.68 94 0 94 C0 62.98 0 31.96 0 0 Z " fill="#F9E48D" transform="translate(774,626)"/>
<path d="M0 0 C33.66 0 67.32 0 102 0 C102 31.02 102 62.04 102 94 C68.34 94 34.68 94 0 94 C0 62.98 0 31.96 0 0 Z " fill="#F9E48E" transform="translate(774,430)"/>
<path d="M0 0 C33.66 0 67.32 0 102 0 C102 31.02 102 62.04 102 94 C68.34 94 34.68 94 0 94 C0 62.98 0 31.96 0 0 Z " fill="#F9D968" transform="translate(258,236)"/>
<path d="M0 0 C33.66 0 67.32 0 102 0 C102 31.02 102 62.04 102 94 C68.34 94 34.68 94 0 94 C0 62.98 0 31.96 0 0 Z " fill="#F9D967" transform="translate(52,236)"/>
<path d="M0 0 C33.66 0 67.32 0 102 0 C102 31.02 102 62.04 102 94 C68.34 94 34.68 94 0 94 C0 62.98 0 31.96 0 0 Z " fill="#F9D968" transform="translate(1702,234)"/>
<path d="M0 0 C33.66 0 67.32 0 102 0 C102 31.02 102 62.04 102 94 C68.34 94 34.68 94 0 94 C0 62.98 0 31.96 0 0 Z " fill="#F8D968" transform="translate(1496,234)"/>
<path d="M0 0 C33.66 0 67.32 0 102 0 C102 31.02 102 62.04 102 94 C68.34 94 34.68 94 0 94 C0 62.98 0 31.96 0 0 Z " fill="#F8D968" transform="translate(258,42)"/>
<path d="M0 0 C33.66 0 67.32 0 102 0 C102 31.02 102 62.04 102 94 C68.34 94 34.68 94 0 94 C0 62.98 0 31.96 0 0 Z " fill="#F9E48E" transform="translate(568,42)"/>
<path d="M0 0 C33.99 0 67.98 0 103 0 C103 30.69 103 61.38 103 93 C69.01 93 35.02 93 0 93 C0 62.31 0 31.62 0 0 Z " fill="#F8D968" transform="translate(670,236)"/>
<path d="M0 0 C34.32 0 68.64 0 104 0 C104 30.36 104 60.72 104 92 C69.68 92 35.36 92 0 92 C0 61.64 0 31.28 0 0 Z " fill="#FAE38D" transform="translate(154,1016)"/>
<path d="M0 0 C34.32 0 68.64 0 104 0 C104 30.36 104 60.72 104 92 C69.68 92 35.36 92 0 92 C0 61.64 0 31.28 0 0 Z " fill="#F9E38D" transform="translate(1598,1014)"/>
<path d="M0 0 C33.66 0 67.32 0 102 0 C102 30.36 102 60.72 102 92 C98.53405056 93.73297472 94.51843717 93.19068957 90.70092773 93.22119141 C89.73663849 93.2326973 88.77234924 93.24420319 87.77883911 93.25605774 C84.58045676 93.29284411 81.3820543 93.32242636 78.18359375 93.3515625 C75.9692404 93.37466613 73.75489002 93.39805634 71.5405426 93.42172241 C66.89595041 93.47022087 62.25134058 93.51514885 57.60668945 93.55761719 C51.63854088 93.61248572 45.6705275 93.67630189 39.70249844 93.74279213 C35.12937225 93.79274379 30.55620857 93.83792025 25.98301888 93.88163376 C23.78166243 93.90327002 21.58032041 93.92642764 19.3789959 93.9510994 C16.30924562 93.9847996 13.23950541 94.01207919 10.16967773 94.03759766 C9.25069199 94.04897263 8.33170624 94.0603476 7.38487244 94.07206726 C5.25649423 94.08638723 3.12786212 94.04900675 1 94 C-0.86626065 92.13373935 -0.1200571 89.46121706 -0.12442875 86.97863674 C-0.12083064 86.11097714 -0.11723253 85.24331755 -0.11352539 84.34936523 C-0.11364593 83.42741143 -0.11376646 82.50545763 -0.11389065 81.55556583 C-0.11314131 78.55655101 -0.10551216 75.55759752 -0.09765625 72.55859375 C-0.09618689 70.71293162 -0.09516615 68.86726908 -0.09460449 67.02160645 C-0.08935087 60.1602313 -0.0753898 53.29886505 -0.0625 46.4375 C-0.041875 31.113125 -0.02125 15.78875 0 0 Z " fill="#F8D968" transform="translate(1496,1014)"/>
<path d="M0 0 C33.66 0 67.32 0 102 0 C102 30.69 102 61.38 102 93 C68.34 93 34.68 93 0 93 C0 62.31 0 31.62 0 0 Z " fill="#FAE48D" transform="translate(980,1014)"/>
<path d="M0 0 C33.99 0 67.98 0 103 0 C103 30.36 103 60.72 103 92 C69.01 92 35.02 92 0 92 C0 61.64 0 31.28 0 0 Z " fill="#F8D968" transform="translate(876,236)"/>
<path d="M0 0 C34.32 0 68.64 0 104 0 C104 16.5 104 33 104 50 C69.68 50 35.36 50 0 50 C0 33.5 0 17 0 0 Z " fill="#FEFEFC" transform="translate(1804,1106)"/>
<path d="M0 0 C17.16 0 34.32 0 52 0 C52 33 52 66 52 100 C34.84 100 17.68 100 0 100 C0 67 0 34 0 0 Z " fill="#FEFEFE" transform="translate(0,722)"/>
<path d="M0 0 C17.16 0 34.32 0 52 0 C52 33 52 66 52 100 C34.84 100 17.68 100 0 100 C0 67 0 34 0 0 Z " fill="#FEFEFE" transform="translate(0,526)"/>
<path d="M0 0 C17.16 0 34.32 0 52 0 C52 33 52 66 52 100 C34.84 100 17.68 100 0 100 C0 67 0 34 0 0 Z " fill="#FDFDFC" transform="translate(0,136)"/>
<path d="M0 0 C33.99 0 67.98 0 103 0 C103 16.5 103 33 103 50 C69.01 50 35.02 50 0 50 C0 33.5 0 17 0 0 Z " fill="#FAE48D" transform="translate(1908,1106)"/>
<path d="M0 0 C16.83 0 33.66 0 51 0 C51 33 51 66 51 100 C34.17 100 17.34 100 0 100 C0 67 0 34 0 0 Z " fill="#FEFEFE" transform="translate(2012,720)"/>
<path d="M0 0 C16.83 0 33.66 0 51 0 C51 33 51 66 51 100 C34.17 100 17.34 100 0 100 C0 67 0 34 0 0 Z " fill="#FEFEFE" transform="translate(2012,524)"/>
<path d="M0 0 C16.83 0 33.66 0 51 0 C51 33 51 66 51 100 C34.17 100 17.34 100 0 100 C0 67 0 34 0 0 Z " fill="#FEFEFE" transform="translate(0,330)"/>
<path d="M0 0 C16.83 0 33.66 0 51 0 C51 33 51 66 51 100 C34.17 100 17.34 100 0 100 C0 67 0 34 0 0 Z " fill="#FEFEFE" transform="translate(2012,328)"/>
<path d="M0 0 C16.83 0 33.66 0 51 0 C51 33 51 66 51 100 C34.17 100 17.34 100 0 100 C0 67 0 34 0 0 Z " fill="#FEFEFE" transform="translate(2012,134)"/>
<path d="M0 0 C17.16 0 34.32 0 52 0 C52 32.34 52 64.68 52 98 C34.84 98 17.68 98 0 98 C0 65.66 0 33.32 0 0 Z " fill="#FEFEFD" transform="translate(0,918)"/>
<path d="M0 0 C33.66 0 67.32 0 102 0 C102 16.17 102 32.34 102 49 C68.34 49 34.68 49 0 49 C0 32.83 0 16.66 0 0 Z " fill="#FAE48D" transform="translate(1702,1107)"/>
<path d="M0 0 C34.32 0 68.64 0 104 0 C104 15.84 104 31.68 104 48 C69.68 48 35.36 48 0 48 C0 32.16 0 16.32 0 0 Z " fill="#FEFEFE" transform="translate(360,1108)"/>
<path d="M0 0 C34.32 0 68.64 0 104 0 C104 15.84 104 31.68 104 48 C69.68 48 35.36 48 0 48 C0 32.16 0 16.32 0 0 Z " fill="#FEFEFC" transform="translate(154,1108)"/>
<path d="M0 0 C34.32 0 68.64 0 104 0 C104 15.84 104 31.68 104 48 C69.68 48 35.36 48 0 48 C0 32.16 0 16.32 0 0 Z " fill="#FEFEFE" transform="translate(1598,1108)"/>
<path d="M0 0 C34.32 0 68.64 0 104 0 C104 15.84 104 31.68 104 48 C69.68 48 35.36 48 0 48 C0 32.16 0 16.32 0 0 Z " fill="#FEFEFE" transform="translate(1392,1108)"/>
<path d="M0 0 C34.32 0 68.64 0 104 0 C104 15.84 104 31.68 104 48 C69.68 48 35.36 48 0 48 C0 32.16 0 16.32 0 0 Z " fill="#F9E48E" transform="translate(876,1108)"/>
<path d="M0 0 C17.16 0 34.32 0 52 0 C52 31.68 52 63.36 52 96 C34.84 96 17.68 96 0 96 C0 64.32 0 32.64 0 0 Z " fill="#F9E48E" transform="translate(0,822)"/>
<path d="M0 0 C17.16 0 34.32 0 52 0 C52 31.68 52 63.36 52 96 C34.84 96 17.68 96 0 96 C0 64.32 0 32.64 0 0 Z " fill="#F9E48E" transform="translate(0,626)"/>
<path d="M0 0 C33.99 0 67.98 0 103 0 C103 15.84 103 31.68 103 48 C69.01 48 35.02 48 0 48 C0 32.16 0 16.32 0 0 Z " fill="#F9E48E" transform="translate(1289,1108)"/>
<path d="M0 0 C33.99 0 67.98 0 103 0 C103 15.84 103 31.68 103 48 C69.01 48 35.02 48 0 48 C0 32.16 0 16.32 0 0 Z " fill="#FEFEFE" transform="translate(1186,1108)"/>
<path d="M0 0 C33.99 0 67.98 0 103 0 C103 15.84 103 31.68 103 48 C69.01 48 35.02 48 0 48 C0 32.16 0 16.32 0 0 Z " fill="#FEFEFD" transform="translate(567,1108)"/>
<path d="M0 0 C33.99 0 67.98 0 103 0 C103 15.84 103 31.68 103 48 C69.01 48 35.02 48 0 48 C0 32.16 0 16.32 0 0 Z " fill="#FAE48E" transform="translate(464,1108)"/>
<path d="M0 0 C33.66 0 67.32 0 102 0 C102 15.84 102 31.68 102 48 C68.34 48 34.68 48 0 48 C0 32.16 0 16.32 0 0 Z " fill="#FAE38D" transform="translate(258,1108)"/>
<path d="M0 0 C33.66 0 67.32 0 102 0 C102 15.84 102 31.68 102 48 C68.34 48 34.68 48 0 48 C0 32.16 0 16.32 0 0 Z " fill="#FEFEFE" transform="translate(980,1108)"/>
<path d="M0 0 C33.66 0 67.32 0 102 0 C102 15.84 102 31.68 102 48 C68.34 48 34.68 48 0 48 C0 32.16 0 16.32 0 0 Z " fill="#FEFEFE" transform="translate(774,1108)"/>
<path d="M0 0 C16.83 0 33.66 0 51 0 C51 31.68 51 63.36 51 96 C34.17 96 17.34 96 0 96 C0 64.32 0 32.64 0 0 Z " fill="#FEFEFE" transform="translate(2012,916)"/>
<path d="M0 0 C17.16 0 34.32 0 52 0 C52 30.36 52 60.72 52 92 C34.84 92 17.68 92 0 92 C0 61.64 0 31.28 0 0 Z " fill="#F9E38D" transform="translate(0,44)"/>
<path d="M0 0 C33.99 0.33 67.98 0.66 103 1 C103 16.18 103 31.36 103 47 C69.34 47 35.68 47 1 47 C0.67 31.49 0.34 15.98 0 0 Z " fill="#FAE48D" transform="translate(51,1109)"/>
<path d="M0 0 C34.32 0 68.64 0 104 0 C104 13.86 104 27.72 104 42 C69.68 42 35.36 42 0 42 C0 28.14 0 14.28 0 0 Z " fill="#FEFDFC" transform="translate(1598,0)"/>
<path d="M0 0 C34.32 0 68.64 0 104 0 C104 13.86 104 27.72 104 42 C69.68 42 35.36 42 0 42 C0 28.14 0 14.28 0 0 Z " fill="#FEFDFD" transform="translate(1392,0)"/>
<path d="M0 0 C34.32 0 68.64 0 104 0 C104 13.86 104 27.72 104 42 C69.68 42 35.36 42 0 42 C0 28.14 0 14.28 0 0 Z " fill="#FDFDFC" transform="translate(1186,0)"/>
<path d="M0 0 C34.32 0 68.64 0 104 0 C104 13.86 104 27.72 104 42 C69.68 42 35.36 42 0 42 C0 28.14 0 14.28 0 0 Z " fill="#F9E38E" transform="translate(1082,0)"/>
<path d="M0 0 C34.32 0 68.64 0 104 0 C104 13.86 104 27.72 104 42 C69.68 42 35.36 42 0 42 C0 28.14 0 14.28 0 0 Z " fill="#F9E38E" transform="translate(876,0)"/>
<path d="M0 0 C34.32 0 68.64 0 104 0 C104 13.86 104 27.72 104 42 C69.68 42 35.36 42 0 42 C0 28.14 0 14.28 0 0 Z " fill="#F9E38E" transform="translate(670,0)"/>
<path d="M0 0 C34.32 0 68.64 0 104 0 C104 13.86 104 27.72 104 42 C69.68 42 35.36 42 0 42 C0 28.14 0 14.28 0 0 Z " fill="#FEFEFE" transform="translate(360,0)"/>
<path d="M0 0 C33.99 0 67.98 0 103 0 C103 13.86 103 27.72 103 42 C69.01 42 35.02 42 0 42 C0 28.14 0 14.28 0 0 Z " fill="#FEFEFE" transform="translate(154,0)"/>
<path d="M0 0 C33.66 0 67.32 0 102 0 C102 13.86 102 27.72 102 42 C68.34 42 34.68 42 0 42 C0 28.14 0 14.28 0 0 Z " fill="#F9E38D" transform="translate(1496,0)"/>
<path d="M0 0 C33.66 0 67.32 0 102 0 C102 13.86 102 27.72 102 42 C68.34 42 34.68 42 0 42 C0 28.14 0 14.28 0 0 Z " fill="#F9E38D" transform="translate(1290,0)"/>
<path d="M0 0 C33.66 0 67.32 0 102 0 C102 13.86 102 27.72 102 42 C68.34 42 34.68 42 0 42 C0 28.14 0 14.28 0 0 Z " fill="#FEFEFE" transform="translate(980,0)"/>
<path d="M0 0 C33.66 0 67.32 0 102 0 C102 13.86 102 27.72 102 42 C68.34 42 34.68 42 0 42 C0 28.14 0 14.28 0 0 Z " fill="#FEFEFE" transform="translate(774,0)"/>
<path d="M0 0 C33.66 0 67.32 0 102 0 C102 13.86 102 27.72 102 42 C68.34 42 34.68 42 0 42 C0 28.14 0 14.28 0 0 Z " fill="#FEFEFE" transform="translate(568,0)"/>
<path d="M0 0 C34.32 0 68.64 0 104 0 C104 13.2 104 26.4 104 40 C69.68 40 35.36 40 0 40 C0 26.8 0 13.6 0 0 Z " fill="#FEFEFE" transform="translate(1804,0)"/>
<path d="M0 0 C33.99 0 67.98 0 103 0 C103 13.2 103 26.4 103 40 C69.01 40 35.02 40 0 40 C0 26.8 0 13.6 0 0 Z " fill="#F9E48E" transform="translate(1908,0)"/>
<path d="M0 0 C33.66 0 67.32 0 102 0 C102 13.2 102 26.4 102 40 C68.34 40 34.68 40 0 40 C0 26.8 0 13.6 0 0 Z " fill="#F9E48E" transform="translate(1702,0)"/>
<path d="M0 0 C17.16 0 34.32 0 52 0 C52 16.5 52 33 52 50 C34.84 50 17.68 50 0 50 C0 33.5 0 17 0 0 Z " fill="#FEFEFC" transform="translate(2011,1106)"/>
<path d="M0 0 C7.24491214 -0.02290278 14.48969969 -0.04283177 21.73461914 -0.05493164 C24.20142033 -0.05997356 26.66821852 -0.06680691 29.13500977 -0.07543945 C32.67204529 -0.08751125 36.20904145 -0.09322956 39.74609375 -0.09765625 C40.85649521 -0.10281754 41.96689667 -0.10797882 43.11094666 -0.11329651 C44.64242088 -0.11340981 44.64242088 -0.11340981 46.20483398 -0.11352539 C47.10862289 -0.115746 48.0124118 -0.11796661 48.94358826 -0.12025452 C51 0 51 0 52 1 C52.09295815 2.44289787 52.11746513 3.89029785 52.11352539 5.33618164 C52.11340454 6.26998657 52.11328369 7.2037915 52.11315918 8.16589355 C52.10804321 9.15400024 52.10292725 10.14210693 52.09765625 11.16015625 C52.09664917 12.06342651 52.09564209 12.96669678 52.09460449 13.89733887 C52.08935512 17.28573874 52.07539398 20.67412059 52.0625 24.0625 C52.041875 31.631875 52.02125 39.20125 52 47 C34.84 47 17.68 47 0 47 C0 31.49 0 15.98 0 0 Z " fill="#FEFEFC" transform="translate(0,1109)"/>
<path d="M0 0 C17.16 0 34.32 0 52 0 C52 14.52 52 29.04 52 44 C34.84 44 17.68 44 0 44 C0 29.48 0 14.96 0 0 Z " fill="#FDFDFC" transform="translate(0,0)"/>
<path d="M0 0 C17.16 0 34.32 0 52 0 C52 13.2 52 26.4 52 40 C34.84 40 17.68 40 0 40 C0 26.8 0 13.6 0 0 Z " fill="#FEFEFD" transform="translate(2011,0)"/>
<path d="M0 0 C34.65 0 69.3 0 105 0 C105 33.66 105 67.32 105 102 C79.08525264 102.04010881 79.08525264 102.04010881 68.08007812 102.04882812 C60.55638936 102.05481722 53.0327127 102.06191927 45.5090332 102.07543945 C39.44662277 102.08626614 33.38422531 102.09227637 27.32180595 102.09487724 C25.00323723 102.09673189 22.68466926 102.10035325 20.36610603 102.10573006 C17.13085492 102.11293758 13.89565817 102.11399106 10.66040039 102.11352539 C9.69151886 102.11712067 8.72263733 102.12071594 7.72439575 102.12442017 C6.84794907 102.1230455 5.97150238 102.12167084 5.0684967 102.12025452 C4.30248673 102.12117631 3.53647676 102.1220981 2.74725437 102.12304783 C1 102 1 102 0 101 C-0.09535055 97.86436909 -0.12549573 94.75089396 -0.11352539 91.61499023 C-0.11364593 90.61373895 -0.11376646 89.61248766 -0.11389065 88.58089542 C-0.11314122 85.32343933 -0.10551164 82.06603968 -0.09765625 78.80859375 C-0.09618692 76.80407743 -0.09516616 74.79956073 -0.09460449 72.79504395 C-0.08935054 65.34252347 -0.07538947 57.89001119 -0.0625 50.4375 C-0.041875 33.793125 -0.02125 17.14875 0 0 Z M1 2 C1 34.67 1 67.34 1 101 C34.66 101 68.32 101 103 101 C103 68.33 103 35.66 103 2 C69.34 2 35.68 2 1 2 Z " fill="#F7F0C7" transform="translate(979,328)"/>
<path d="M0 0 C34.32 0 68.64 0 104 0 C104 33 104 66 104 100 C69.68 100 35.36 100 0 100 C0 67 0 34 0 0 Z M2 2 C2 34.01 2 66.02 2 99 C35.33 99 68.66 99 103 99 C103 66.99 103 34.98 103 2 C69.67 2 36.34 2 2 2 Z " fill="#FAF8EB" transform="translate(1804,134)"/>
<path d="M0 0 C0.33 0 0.66 0 1 0 C1 33 1 66 1 100 C34.66 100 68.32 100 103 100 C103 67 103 34 103 0 C103.66 0 104.32 0 105 0 C105 33.66 105 67.32 105 102 C79.08525264 102.04010881 79.08525264 102.04010881 68.08007812 102.04882812 C60.55638936 102.05481722 53.0327127 102.06191927 45.5090332 102.07543945 C39.44662277 102.08626614 33.38422531 102.09227637 27.32180595 102.09487724 C25.00323723 102.09673189 22.68466926 102.10035325 20.36610603 102.10573006 C17.13085492 102.11293758 13.89565817 102.11399106 10.66040039 102.11352539 C9.69151886 102.11712067 8.72263733 102.12071594 7.72439575 102.12442017 C6.84794907 102.1230455 5.97150238 102.12167084 5.0684967 102.12025452 C4.30248673 102.12117631 3.53647676 102.1220981 2.74725437 102.12304783 C1 102 1 102 0 101 C-0.09534958 97.86440114 -0.12550879 94.75086387 -0.11352539 91.61499023 C-0.11367142 90.62973358 -0.11381744 89.64447693 -0.1139679 88.62936401 C-0.11326832 85.35575193 -0.10547385 82.08219596 -0.09765625 78.80859375 C-0.09579223 76.54557832 -0.09436825 74.28256249 -0.09336853 72.01954651 C-0.0895421 66.05021052 -0.07971075 60.08089868 -0.06866455 54.11157227 C-0.05845312 48.02555671 -0.05387149 41.93953727 -0.04882812 35.85351562 C-0.03808859 23.90233311 -0.02101068 11.95116856 0 0 Z " fill="#F6EEBA" transform="translate(979,720)"/>
<path d="M0 0 C34.32 0 68.64 0 104 0 C104 0.66 104 1.32 104 2 C70.34 2 36.68 2 2 2 C2 34.67 2 67.34 2 101 C1.34 101 0.68 101 0 101 C0 67.67 0 34.34 0 0 Z " fill="#FEF6BE" transform="translate(566,720)"/>
<path d="M0 0 C34.32 0 68.64 0 104 0 C104 31.02 104 62.04 104 94 C103.34 94 102.68 94 102 94 C102 63.64 102 33.28 102 2 C68.34 2 34.68 2 0 2 C0 1.34 0 0.68 0 0 Z " fill="#FBDD77" transform="translate(464,1014)"/>
<path d="M0 0 C34.32 0 68.64 0 104 0 C104 31.02 104 62.04 104 94 C103.67 94 103.34 94 103 94 C102.67 63.64 102.34 33.28 102 2 C68.34 2 34.68 2 0 2 C0 1.34 0 0.68 0 0 Z " fill="#FADE79" transform="translate(1908,1012)"/>
<path d="M0 0 C0.9215538 0.00222061 1.8431076 0.00444122 2.79258728 0.00672913 C3.83359085 0.00680466 4.87459442 0.00688019 5.94714355 0.00695801 C7.07941879 0.01211929 8.21169403 0.01728058 9.37828064 0.02259827 C10.53106003 0.02401321 11.68383942 0.02542816 12.87155151 0.02688599 C16.57043503 0.03250446 20.26925903 0.0450601 23.96812439 0.05775452 C26.46877456 0.06276714 28.96942567 0.06733045 31.47007751 0.07142639 C37.61528027 0.0824799 43.76044808 0.099236 49.90562439 0.12025452 C49.90562439 0.78025452 49.90562439 1.44025452 49.90562439 2.12025452 C33.07562439 2.12025452 16.24562439 2.12025452 -1.09437561 2.12025452 C-1.09437561 35.12025452 -1.09437561 68.12025452 -1.09437561 102.12025452 C-1.75437561 101.79025452 -2.41437561 101.46025452 -3.09437561 101.12025452 C-3.11749661 88.09914812 -3.13528945 75.07804657 -3.14618778 62.05692387 C-3.15141714 56.01137634 -3.15851575 49.96584281 -3.16981506 43.92030334 C-3.18064206 38.09131164 -3.18665204 32.26233343 -3.18925285 26.43333244 C-3.19110744 24.20407842 -3.1947287 21.97482517 -3.20010567 19.74557686 C-3.2073136 16.63485718 -3.20836666 13.52419403 -3.207901 10.41346741 C-3.21149628 9.48198883 -3.21509155 8.55051025 -3.21879578 7.59080505 C-3.20671483 0.18412263 -3.20671483 0.18412263 0 0 Z " fill="#FDF5B3" transform="translate(2013.0943756103516,717.8797454833984)"/>
<path d="M0 0 C17.49 0 34.98 0 53 0 C53 0.66 53 1.32 53 2 C36.17 2 19.34 2 2 2 C2 33.68 2 65.36 2 98 C1.34 98 0.68 98 0 98 C0 65.66 0 33.32 0 0 Z " fill="#FDF5BA" transform="translate(2010,914)"/>
<path d="M0 0 C34.32 0 68.64 0 104 0 C104 0.66 104 1.32 104 2 C53.51 2.495 53.51 2.495 2 3 C2 16.53 2 30.06 2 44 C1.34 44.66 0.68 45.32 0 46 C0 30.82 0 15.64 0 0 Z " fill="#FDFBE0" transform="translate(360,1108)"/>
<path d="M0 0 C1.98 0 3.96 0 6 0 C5.67 0.66 5.34 1.32 5 2 C4.01 2 3.02 2 2 2 C2.00444122 3.18572601 2.00888245 4.37145203 2.01345825 5.59310913 C2.05393668 16.74731258 2.08395179 27.9015012 2.10362434 39.05576134 C2.11407805 44.790786 2.12826612 50.52575155 2.15087891 56.26074219 C2.1725508 61.79148569 2.18455666 67.32217219 2.18975449 72.85295486 C2.19346043 74.96695478 2.20069682 77.08095145 2.21146011 79.19492722 C2.22589992 82.14743635 2.2279811 85.09970755 2.22705078 88.05224609 C2.23424133 88.9333757 2.24143188 89.81450531 2.24884033 90.72233582 C2.22810432 96.77189568 2.22810432 96.77189568 0 99 C0 66.33 0 33.66 0 0 Z " fill="#FDFDEB" transform="translate(360,136)"/>
</svg>
